<?xml version="1.0" encoding="utf-8"?>
<!-- Generator: Adobe Illustrator 19.2.1, SVG Export Plug-In . SVG Version: 6.00 Build 0)  -->
<svg version="1.1" id="layer" xmlns="http://www.w3.org/2000/svg" xmlns:xlink="http://www.w3.org/1999/xlink" x="0px" y="0px"
	 viewBox="0 0 652 652" style="enable-background:new 0 0 652 652;" xml:space="preserve">
<style type="text/css">
	.st0{fill:#AE9142;}
	.st1{fill:#0C2340;}
</style>
<g id="shield-container">
	<path class="st0" d="M45.2,274.2l-6.9-1.4l4.6,5.2l-4.6,5.2l6.9-1.4l2.2,6.6l2.2-6.6l6.8,1.4l-4.6-5.2l4.6-5.2l-6.8,1.4l-2.2-6.6
		L45.2,274.2 M47.5,272.7l1.2,3.4l3.5-0.7l-2.4,2.7l2.4,2.7l-3.5-0.7l-1.2,3.4c-0.5-1.3-1.2-3.4-1.2-3.4l-3.5,0.7l2.4-2.7l-2.4-2.7
		l3.5,0.7L47.5,272.7"/>
	<path class="st0" d="M61.9,322c0.4-0.9,0.6-1.5,0.9-1.9c0.1-0.2,0.3-0.3,0.5-0.4h0.2c0,0,0-0.2,0-0.2h-1.8c0,0.1,0,0.1,0,0.2H62
		c0.2,0,0.3,0.1,0.1,0.5c-0.5,1.2-1,2.4-1.4,3.5l-0.5-1.1l-0.6-1.6c-0.2-0.4-0.3-0.8-0.4-1.2c0,0,0-0.1,0.2-0.2h0.2
		c0.1-0.1,0.1-0.2,0-0.2c0,0,0,0,0,0h-2.2c0,0,0,0.2,0,0.2h0.2c0.3,0,0.4,0.2,0.7,0.8l1.5,3.7c0.1,0.3,0.3,0.8,0.4,1.1h0.2h0.1
		c0.1-0.4,0.6-1.5,0.9-2.3L61.9,322z"/>
	<path class="st0" d="M65.8,324c0,0.9,0,0.9,0.5,1h0.2c0.1,0.1,0.1,0.2,0,0.2h-2.3c-0.1-0.1-0.1-0.2,0-0.2h0.2c0.4,0,0.5,0,0.5-1
		v-3.3c0-0.9,0-1-0.5-1h-0.2c0,0,0-0.2,0-0.2h2.3c0,0,0,0.2,0,0.2h-0.2c-0.4,0-0.5,0-0.5,1L65.8,324z"/>
	<path class="st0" d="M69.3,320.2c0-0.4,0-0.4-0.2-0.4h-0.5c-0.8,0-1,0-1.3,0.8c-0.1,0.1-0.2,0.1-0.3,0c0.1-0.5,0.3-1,0.3-1.3h0.2
		c0,0.2,0.2,0.2,0.7,0.2h3.5c0.4,0,0.5,0,0.6-0.2l0,0c0,0,0.1,0,0.1,0c-0.1,0.5-0.2,0.9-0.1,1.4c-0.1,0.1-0.2,0.1-0.2,0
		c-0.1-0.7-0.3-0.8-1.2-0.8h-0.5c-0.2,0-0.2,0-0.2,0.4v3.8c0,0.9,0,0.9,0.5,1H71c0.1,0.1,0.1,0.2,0,0.2h-2.5c-0.1-0.1-0.1-0.2,0-0.2
		c0,0,0,0,0,0h0.3c0.4,0,0.5,0,0.5-1L69.3,320.2z"/>
	<path class="st0" d="M75.1,323.2c0.3,0,0.3,0,0.4,0.2l0.4,1c0.1,0.4,0,0.4-0.2,0.5h-0.2c-0.1,0.1-0.1,0.2,0,0.2h2.2
		c0.1-0.1,0.1-0.2,0-0.2h-0.1c-0.5,0-0.5-0.1-0.7-0.7l-1.3-3.7c-0.1-0.4-0.2-0.8-0.4-1.2c0,0-0.1,0-0.1,0c-0.2,0.2-0.4,0.3-0.6,0.4
		c0,0.2-0.1,0.4-0.2,0.6l-1.2,3.1c-0.2,0.5-0.3,0.8-0.4,1.1c-0.1,0.2-0.2,0.4-0.5,0.4h-0.3c-0.1,0.1-0.1,0.2,0,0.2h1.8
		c0,0,0-0.2,0-0.2h-0.3c-0.3,0-0.3,0-0.2-0.6l0.3-0.9c0-0.2,0.1-0.2,0.3-0.2L75.1,323.2z M74.1,322.8c-0.2,0-0.3,0-0.1-0.4l0.4-1
		l0.2-0.7l0,0c0.1,0.2,0.2,0.5,0.2,0.7l0.4,1c0,0.3,0,0.3-0.2,0.3L74.1,322.8z"/>
	<path class="st0" d="M60.7,330.3c0-0.4,0-0.6,0-0.7c0.2-0.1,0.4-0.1,0.6-0.1c1.3,0,2.2,0.8,2.2,2.6s-0.6,2.6-2.1,2.6
		c-0.8,0-0.9-0.5-0.9-1.3L60.7,330.3z M59.8,333.7c0,0.9,0,1-0.4,1h-0.2c0,0,0,0.2,0,0.2h1.5h0.7c0.7,0.1,1.4-0.1,2.1-0.4
		c0.9-0.5,1.4-1.5,1.3-2.5c0.1-1.1-0.6-2.2-1.6-2.6c-0.6-0.2-1.2-0.3-1.9-0.3c-0.7,0-1.4,0-2.1,0c0,0.1,0,0.2,0,0.2h0.2
		c0.4,0,0.4,0.2,0.4,1L59.8,333.7z"/>
	<path class="st0" d="M65.8,330.5c0-0.9,0-0.9-0.5-1h-0.1c-0.1-0.1-0.1-0.2,0-0.2c0,0,0,0,0,0h2.2c0.1,0.1,0.1,0.2,0,0.2h-0.2
		c-0.4,0-0.5,0-0.5,1v2.1c0,1.2,0.3,2.2,1.5,2.2s1.6-0.9,1.6-2.2v-1.1c0-0.6,0-1.2-0.2-1.7c-0.1-0.1-0.2-0.2-0.4-0.2h-0.2
		c0,0,0-0.2,0-0.2H71c0.1,0.1,0.1,0.2,0,0.2c0,0,0,0,0,0h-0.2c-0.1,0-0.3,0-0.4,0.2c-0.1,0.6-0.1,1.1-0.1,1.7v1
		c0.1,0.7-0.1,1.5-0.6,2.1c-0.4,0.5-1,0.7-1.6,0.7c-0.6,0.1-1.3-0.1-1.7-0.6c-0.4-0.5-0.6-1.2-0.6-1.9L65.8,330.5z"/>
	<path class="st0" d="M73.5,330.5c0-0.9,0-0.9,0.5-1h0.2c0,0,0-0.2,0-0.3h-2.3c0,0,0,0.2,0,0.3H72c0.4,0,0.5,0,0.5,1v3.3
		c0,0.9,0,0.9-0.5,1h-0.2c0,0,0,0.2,0,0.2h4.1c0.2-0.4,0.3-0.8,0.3-1.3c-0.1-0.1-0.2-0.1-0.2,0c0,0,0,0,0,0
		c-0.4,0.9-0.5,0.9-1.5,0.9c-0.9,0-0.8,0-0.9-0.2c-0.1-0.3-0.2-0.6-0.1-0.9L73.5,330.5z"/>
	<path class="st0" d="M112.7,312.5v-4.6c-5.2,1.8-10.8,2.2-16.3,1.2c-9.8-1.4-13.8,1.3-13.8,1.3s-4.1-2.7-13.9-1.3
		c-5.4,1-11,0.6-16.3-1.2v4.6h-2.7v34.8h28.4c1.2,1.2,2.8,1.9,4.5,1.7c1.7,0.1,3.3-0.5,4.4-1.7h28.4v-34.8H112.7z M81.3,343.8
		c0,0-3.5-2.3-13.2-1.1s-13.3-1-13.3-1v-30.6c0,0,4.1,1.6,13.9,0.4s12.6,1.1,12.6,1.1L81.3,343.8z M110.3,341.7c0,0-3.5,2.2-13.3,1
		c-9.8-1.3-13.2,1.1-13.2,1.1v-31.2c0,0,2.8-2.3,12.6-1.1s13.9-0.4,13.9-0.4L110.3,341.7z"/>
	<path class="st0" d="M90.5,321c0,0.1-0.1,0.1-0.2,0c0,0,0,0,0,0c-0.1-0.7-0.7-1.2-1.5-1.2c-1,0-1.9,0.8-1.9,2.4s1,2.6,2,2.6
		c0.7,0,1.4-0.5,1.6-1.2c0-0.1,0.1-0.1,0.2,0c0,0,0,0,0,0c0,0.4-0.2,0.9-0.4,1.3h-0.3c-0.4,0.1-0.8,0.2-1.2,0.2
		c-0.7,0-1.4-0.2-1.9-0.6c-0.7-0.5-1.1-1.4-1.1-2.3c0-0.8,0.3-1.6,0.9-2.2c0.6-0.5,1.3-0.7,2.1-0.7c0.4,0,0.9,0.1,1.3,0.2h0.2
		c0,0.2,0,0.7,0.1,1.3"/>
	<path class="st0" d="M92,320.7c0-0.9,0-1-0.5-1h-0.1c0,0,0-0.2,0-0.2h3.7c0,0.1,0,0.8,0.1,1.2c-0.1,0.1-0.2,0.1-0.3,0c0,0,0,0,0,0
		c-0.1-0.5-0.3-0.7-0.5-0.8c-0.2,0-0.5,0-0.7,0h-0.5c-0.3,0-0.3,0-0.3,0.5v1.6c0,0.2,0,0.2,0.2,0.2h0.3c0.7,0,0.9,0,0.9-0.4v-0.3
		c0,0,0.2,0,0.3,0s0,0.5,0,0.9c0,0.3,0,0.6,0,0.9c0,0.3-0.2,0-0.3,0v-0.3c0-0.4-0.2-0.4-0.9-0.4h-0.3c-0.2,0-0.2,0-0.2,0.2v1.1
		c0,0.5,0,0.8,0.1,0.9c0.1,0.1,0.1,0.2,0.8,0.2c1.1,0,1.2-0.2,1.4-0.9c0.1-0.1,0.2-0.1,0.3,0c0,0,0,0,0,0c-0.1,0.4-0.2,0.9-0.3,1.3
		h-4.1c-0.1-0.1-0.1-0.2,0-0.2c0,0,0,0,0,0h0.3c0.4,0,0.5,0,0.5-1L92,320.7z"/>
	<path class="st0" d="M97.9,320.6c0-0.4,0-0.6,0-0.7s0-0.1,0.3-0.1c1.4,0,2.3,0.8,2.3,2.6s-0.7,2.6-2.1,2.6c-0.9,0-0.6-0.5-0.6-1.3
		L97.9,320.6z M97,324c0,0.9,0,1-0.5,1h-0.2c0,0,0,0.2,0,0.2h2.1c0.6,0,1.3-0.1,1.9-0.4c0.9-0.5,1.5-1.5,1.5-2.5
		c0.1-1.1-0.6-2.2-1.6-2.6c-0.6-0.2-1.2-0.3-1.8-0.3c-0.8,0-1.3,0-1.9,0c-0.1,0.1-0.1,0.2,0,0.2h0.2c0.4,0,0.4,0.1,0.4,1V324z"/>
	<path class="st0" d="M105.2,319.7c1.3,0,1.8,1.5,1.8,2.8c0,1.7-0.7,2.5-1.6,2.5c-1.3,0-1.8-1.6-1.8-2.8
		C103.6,320.4,104.4,319.7,105.2,319.7 M105.2,319.4c-1.6,0-2.8,1.3-2.8,2.9c0,0.1,0,0.1,0,0.2c-0.1,1.5,1.1,2.8,2.6,2.9
		c0.1,0,0.1,0,0.2,0c1.6,0,2.8-1.3,2.8-2.9c0-0.1,0-0.1,0-0.2c0.1-1.5-1-2.9-2.5-3C105.4,319.4,105.3,319.4,105.2,319.4"/>
	<path class="st0" d="M88,334.8c-0.2-0.4-0.3-0.9-0.2-1.3c0.1-0.1,0.2-0.1,0.2,0c0,0,0,0,0,0c0.2,0.5,0.6,1.4,1.5,1.4
		c0.5,0.1,0.9-0.3,1-0.8c0,0,0-0.1,0-0.1c0-0.6-0.3-1.1-0.9-1.3l-0.4-0.2c-0.7-0.3-1.1-1-1.2-1.7c0-0.9,0.6-1.6,1.9-1.6
		c0.4,0,0.8,0.1,1.2,0.2c0.1,0.4,0.2,0.8,0.2,1.2c-0.1,0.1-0.2,0.1-0.3,0c0,0,0,0,0,0c-0.1-0.6-0.6-1-1.2-1c-0.5,0-0.9,0.3-1,0.8
		c0,0,0,0.1,0,0.1c0.1,0.5,0.4,0.9,0.8,1l0.5,0.3c0.7,0.3,1.1,1,1.2,1.7c0,1-0.8,1.7-1.7,1.7c-0.1,0-0.2,0-0.3,0
		C88.9,335.1,88.4,335,88,334.8"/>
	<path class="st0" d="M93.1,330.5c0-0.8,0-0.9-0.4-1h-0.3c0,0,0-0.2,0-0.2c0.6,0,1.2,0,1.9,0c0.6,0,1.2,0.1,1.8,0.3
		c0.5,0.3,0.7,0.8,0.7,1.3c0,1-0.9,1.7-1.8,1.7c0,0,0,0,0,0h-0.2c0-0.1,0-0.1,0-0.2c0.7-0.1,1.1-0.8,1-1.4c0.1-0.7-0.4-1.3-1.1-1.3
		c0,0-0.1,0-0.1,0c-0.4,0-0.4,0-0.4,0.4v3.8c0,0.9,0,1,0.5,1h0.3c0,0,0,0.2,0,0.2h-2.4c0,0,0-0.2,0-0.2h0.2c0.4,0,0.5,0,0.5-1
		L93.1,330.5z"/>
	<path class="st0" d="M98.1,333.7c0,0.9,0,1-0.5,1h-0.3c0,0,0,0.2,0,0.2h4.1c0.2-0.4,0.3-0.8,0.4-1.3c-0.1-0.1-0.2-0.1-0.3,0
		c-0.3,0.7-0.4,0.9-1.4,0.9c-0.7,0-0.9,0-1-0.2c-0.1-0.3-0.2-0.6-0.1-0.9v-1c0-0.2,0-0.2,0.2-0.2h0.4c0.7,0,0.9,0,0.9,0.4v0.3
		c0,0,0.2,0,0.3,0s0-0.6,0-0.9c0-0.3,0-0.6,0-0.8c0-0.2-0.2,0-0.3,0v0.3c0,0.4-0.2,0.4-0.9,0.4h-0.4c-0.2,0-0.2,0-0.2-0.2V330
		c0-0.5,0-0.5,0.4-0.5h0.6c0.2,0,0.4,0,0.7,0c0.3,0,0.4,0.3,0.5,0.8c0,0,0.2,0,0.3,0c0-0.4,0-1.1-0.1-1.2h-3.7c0,0,0,0.2,0,0.3h0.1
		c0.4,0,0.5,0,0.5,1L98.1,333.7z"/>
	<path class="st0" d="M102.9,334.8c-0.2-0.4-0.3-0.9-0.2-1.3c0,0,0.2,0,0.3,0c0.2,0.5,0.6,1.4,1.4,1.4c0.5,0.1,0.9-0.3,1-0.8
		c0-0.1,0-0.1,0-0.2c0-0.6-0.3-1.1-0.8-1.3l-0.4-0.2c-0.7-0.3-1.1-1-1.2-1.7c0-0.9,0.6-1.6,1.9-1.6c0.4,0,0.8,0.1,1.2,0.2
		c0.1,0.4,0.2,0.8,0.2,1.2c0,0-0.2,0-0.3,0c-0.1-0.6-0.6-1-1.1-1c-0.5,0-0.9,0.3-1,0.8c0,0,0,0.1,0,0.1c0.1,0.5,0.4,0.9,0.8,1
		l0.5,0.3c0.7,0.3,1.1,1,1.2,1.7c0,1-0.8,1.7-1.7,1.7c-0.1,0-0.1,0-0.2,0C103.8,335.1,103.3,335,102.9,334.8"/>
	<path class="st0" d="M82.5,257.2H26.7v50.7c0,48.4,30.7,74.3,55.8,88.4c25.1-14.1,55.8-40,55.8-88.4v-50.7H82.5z M82.5,387.4
		c-2.8-1.6-5.4-3.2-8.2-5.2c2.5-1.5,5.3-2.4,8.2-2.5c2.9,0.1,5.8,0.9,8.2,2.5C87.9,384.3,85.2,385.8,82.5,387.4 M101.9,373.5
		c-0.9,1-2.1,1.7-3.4,1.9c-0.7,0.1-1.4,0.2-2.1,0.2c-5.7,0-6.9-3.4-13.9-3.4c-6.9,0-8.2,3.4-13.9,3.4c-0.7,0-1.4-0.1-2.1-0.2
		c-1.3-0.3-2.5-1-3.4-1.9c-2.8-2.4-5.4-5.1-7.8-7.9c5.2,0,6.5,3.2,13.3,3.2c5.7,0,6.9-3.4,13.9-3.4s8.2,3.4,13.9,3.4
		c6.8,0,8-3.1,13.3-3.2C107.2,368.4,104.6,371,101.9,373.5 M130.7,308.7c0.2,17.7-5.1,35.1-15.4,49.6l0,0c-1.4-0.5-3-0.7-4.5-0.7
		c-5.8,0-7.5,3.4-14.4,3.4c-4.1,0-6-1.9-9.4-2.8V350c0,0-1,1.4-4.4,1.4s-4.4-1.6-4.4-1.6v8.2c-3.4,1-5.2,2.8-9.4,2.8
		c-6.9,0-8.6-3.4-14.4-3.4c-1.5,0-3.1,0.2-4.5,0.7l0,0c-10.3-14.4-15.7-31.7-15.5-49.5v-43.9h96.4L130.7,308.7z"/>
	<path class="st0" d="M87,298.9h19.2l6.5,3.7v-15.3l-6.5,3.7H87v-14.8l3.8-6.5H74.3l3.9,6.5v14.8H58.9l-6.5-3.7v15.3l6.5-3.7h19.3
		v7.8c1.5,0.2,3.1,0.6,4.4,1.3c1.4-0.7,2.9-1.1,4.4-1.3v-7.8H87z"/>
	<path class="st0" d="M75.2,332.2L75.2,332.2h0.3l0,0c0-0.2,0.2-0.5,0.5-0.5c0.2,0,0.4,0.1,0.6,0.2l0,0c0.7,0.3,0.8,0.3,1,0.3
		s0.8-0.3,0.9-1l0,0h-0.2l0,0c0,0.4-0.2,0.6-0.5,0.6s-0.2,0-0.8-0.3c-0.3-0.2-0.6-0.3-0.9-0.3C76,331.2,75.3,331.2,75.2,332.2"/>
</g>
<g id="mark">
	<path class="st1" d="M199.4,335.6c0,2.1,0,10.5,0.2,12.1c-0.6,0.7-1.4,1.1-2.3,1c-1.1-1.4-3.1-3.8-8-9.4l-16.1-18.3
		c-4.5-5-6.7-7.6-7.8-8.6c-0.2,0-0.2,0.8-0.2,4.4V330c0,5.1,0,11.5,1.2,13.5c0.9,1.1,2.1,1.7,3.5,1.7l1.5,0.2
		c0.6,0.5,0.6,1.8-0.1,2.1c-2.6-0.1-5.2-0.2-7.8-0.2s-4.7,0-7.1,0.2c-0.6-0.5-0.7-1.4-0.2-2c0,0,0,0,0.1-0.1l1.5-0.3
		c1.3-0.2,2.5-0.5,3-1.6c0.9-2.1,0.9-8.2,0.9-13.5v-16.2c0-5.4,0-6.4-2.3-8.4c-1.1-0.6-2.3-1.1-3.6-1.4l-1-0.2
		c-0.5-0.4-0.4-1.8,0.3-2.1c2.6,0.3,6.4,0.2,8.1,0.2c1.4,0,3.1,0,4.7-0.2c1.2,3,8.7,11.6,11.1,14.2l6.9,7.4
		c2.9,3.2,9.3,10.4,10,10.9c0.2-0.2,0.2-0.6,0.2-1.7v-13.4c0-5.1,0-11.5-1.3-13.5c-0.8-1.1-2.1-1.7-3.4-1.7l-1.6-0.2
		c-0.6-0.5-0.6-1.8,0.1-2.1c2.7,0.1,5.2,0.2,7.9,0.2s4.7,0,7.2-0.2c0.6,0.5,0.7,1.3,0.2,1.9c0,0-0.1,0.1-0.1,0.1l-1.6,0.4
		c-1.3,0.2-2.4,0.5-2.9,1.6c-0.9,2.1-0.9,8.1-0.9,13.5L199.4,335.6z"/>
	<path class="st1" d="M233.3,303.6c10.9,0,15.6,12,15.6,22.4c0,13.8-6.3,19.7-14.1,19.7c-11.8,0-15.8-12.9-15.8-22.4
		C219,308.7,226.5,303.6,233.3,303.6 M234.3,300.9c-13-0.6-24.1,9.6-24.6,22.6c0,0.6,0,1.2,0,1.8c0,12.4,8.9,23.1,24.5,23.1
		c13.8,0,24.1-10.1,24.1-23.6C258.2,312.3,250,300.9,234.3,300.9"/>
	<path class="st1" d="M279.5,307.8c0-2.9,0-3-1.8-3h-2.1c-6.3,0-8.2,0.8-10.7,6.3c-0.8,0.4-1.7,0.2-2.2-0.5c1.1-3.4,2-6.8,2.7-10.3
		c0.2-0.2,0.5-0.3,0.8-0.2c0.3,0,0.5,0.1,0.7,0.2c0.4,1.7,1.3,1.8,6,1.8h24.4c3.4,0,4.4-0.2,5.2-1.8c0.2-0.1,0.5-0.2,0.8-0.2
		c0.3,0,0.7,0.1,0.9,0.3c-0.8,3.6-1.1,7.3-1,10.9c-0.6,0.5-1.4,0.6-2.1,0.2c-0.9-5.4-2.2-6.6-9.5-6.6h-2.1c-1.8,0-1.9,0.1-1.9,3
		v29.6c0,7.3,0.6,7.5,3.9,7.8l2.4,0.2c0.5,0.6,0.5,1.5-0.1,2.1c-4-0.1-7.1-0.2-10.1-0.2c-3,0-6.2,0-10.6,0.2
		c-0.6-0.5-0.6-1.4-0.1-2.1l2.9-0.3c3.2-0.3,3.8-0.5,3.8-7.8L279.5,307.8z"/>
	<path class="st1" d="M324.4,307.9c0-3.1,0-3.4,3.6-3.4c6,0,9.5,4.7,9.5,10.2c0,6.5-3.1,9.8-9.8,9.8c-3.3,0-3.3-0.1-3.3-2.3V307.9z
		 M316.5,337.4c0,7.3-0.6,7.5-3.8,7.9l-1.5,0.2c-0.5,0.5-0.5,1.4,0,2c0,0,0.1,0.1,0.1,0.1c3.1-0.1,6.2-0.2,9.3-0.2
		c3.1,0,6.2,0,9.1,0.2c0.6-0.5,0.7-1.4,0.1-2.1l-1.5-0.2c-3.2-0.4-3.8-0.6-3.8-7.9v-8.8c0-1.5,0-1.5,2.1-1.5
		c1.8-0.3,3.6,0.6,4.3,2.3c1.6,2.7,3.6,6.5,5.4,9.3c4.1,6.4,7.8,9.1,14.4,9.1c1.5,0,3-0.1,4.5-0.4c0.2-0.4,0.2-1-0.1-1.4
		c-1.7-0.2-3.4-0.9-4.7-2.1c-3.2-2.7-6.7-8.5-12.1-17.8c-0.3-0.4-0.4-1,0-1.2c3.4-1.4,8.2-4.5,8.2-10.8c0.1-4.2-2.2-8.2-6.1-10
		c-4.1-1.8-8.5-2.6-13-2.4c-5.6,0-11.5,0.2-15.8,0.6c-0.5,0.5-0.5,1.4,0,1.9l1.8,0.2c3.2,0.3,3.3,1.2,3.3,7.8L316.5,337.4z"/>
	<path class="st1" d="M366.8,311.9c0-7.3-0.6-7.5-3.8-8l-1.1-0.2c-0.5-0.5-0.4-1.7,0.1-2.1c1.3,0,2.7,0.1,4.3,0.1c1.5,0,3.1,0,4.6,0
		H384c4.4,0,8.4,0,9.3-0.2c0.3,1.2,0.7,6.6,1.1,9.5c-0.3,0.6-1.6,0.7-2.2,0.3c-1.1-4-2.1-5.7-4.3-6.2c-1.8-0.4-3.6-0.6-5.5-0.6h-4.6
		c-3,0-3,0.1-3,4.1v11.6c0,1.8,0,1.9,1.7,1.9h3.3c6,0,7.2,0,7.6-3l0.5-2.3c0.6-0.5,1.9-0.5,2.2,0c0,1.9-0.2,4.3-0.2,6.9
		s0.1,5,0.2,7.2c-0.7,0.5-1.5,0.5-2.2,0l-0.5-2.7c-0.5-2.9-1.6-3-7.6-3h-3.3c-1.6,0-1.7,0.1-1.7,1.9v8.7c0,3.5,0.1,6,1.2,7.1
		c1,1.2,2.1,1.5,7.8,1.5c8.7,0.1,10.3-1.9,12.6-7.4c0.7-0.5,1.7-0.3,2.2,0.4c-0.6,3.4-1.5,6.8-2.9,10c-1.5,0-3.7-0.1-6.6-0.1
		c-2.9,0-6.3,0-10.3,0h-7.8c-3,0-7.2,0-10.3,0.2c-0.6-0.5-0.6-1.5-0.1-2.1l2.5-0.2c3.2-0.3,3.8-0.6,3.8-7.8L366.8,311.9z"/>
	<path class="st1" d="M436.2,310.6c0-3.2,0-4.7,0.6-5.1c1.7-0.8,3.6-1.1,5.5-1c11.5,0,19.4,6.6,19.4,20.2c0,11.6-5.5,20.3-17.7,20.3
		c-7.3,0-7.8-3.6-7.8-10.3V310.6z M428.2,337.4c0,7.3-0.6,7.5-3.8,7.9l-1.5,0.2c-0.5,0.5-0.4,1.7,0.1,2.1c3-0.1,6.2-0.2,8.7-0.2
		c1.3,0,2.8,0,4.4,0.2s3.5,0.2,5.6,0.2c5.9,0.2,11.7-0.9,17-3.3c7.6-3.6,12.4-11.3,12.4-19.8c0.3-9.2-5.4-17.6-14.1-20.6
		c-5.2-1.8-10.7-2.6-16.2-2.3c-6.7,0-12.4,0.2-17.2,0.6c-0.5,0.5-0.5,1.4,0,1.9l1.4,0.1c3.2,0.4,3.3,1.2,3.3,7.8L428.2,337.4z"/>
	<path class="st1" d="M489.1,327.4c-1.6,0-1.9,0-1.1-2.1l2.9-8c1.3-3.2,1.8-4.9,2.1-5.4h0.1c0.8,1.7,1.5,3.5,1.9,5.4l2.9,8.2
		c0.6,1.6,0.3,1.8-1.6,1.8L489.1,327.4z M497.1,330.5c1.9,0,2.1,0,2.8,1.9l3.2,9.3c0.9,2.9,0.7,3.4-1.7,3.6l-1.5,0.2
		c-0.4,0.7-0.3,1.5,0.2,2.1c2.4,0,5.4-0.2,8.4-0.2c3.6,0,6.2,0,8.9,0.2c0.5-0.6,0.5-1.5,0-2.1l-1-0.2c-3.5-0.6-3.8-1.1-5.4-5.7
		l-9.9-28.8c-1.1-3.1-2.1-6.3-3.1-9.4c-0.3-0.4-0.7-0.6-1.2-0.5c-1.3,1.5-3,2.6-4.8,3.3c0,1.8-0.5,3.5-1.3,5l-9.4,24.4
		c-1.4,3.7-2.5,6.6-3.4,8.4c-1,2.3-1.8,2.9-3.8,3.2l-2.1,0.3c-0.5,0.6-0.5,1.5,0,2.1c2.4-0.1,4.5-0.2,6.8-0.2c2.8,0,5.1,0,7.3,0.2
		c0.6-0.5,0.6-1.5,0.1-2.1l-2.1-0.3c-2.6-0.4-2.8-0.6-1.4-4.6l2.8-8.2c0.6-1.9,0.6-1.9,2.3-1.9L497.1,330.5z"/>
	<path class="st1" d="M580.4,345.5c0.7,0.3,0.6,1.7-0.1,2.1c-3-0.1-5.6-0.2-8.4-0.2c-3.2,0-6.2,0-9.2,0.2c-0.6-0.3-0.8-1.6-0.1-2.1
		l1.9-0.3c2.8-0.4,2.9-1,2.9-5.7v-28.1h-0.1c-1.9,3.8-2.8,5.8-4.1,8.6l-5.9,12c-2.3,4.8-5.8,12.4-7,15.7c-0.6,0.3-1.2,0.3-1.8,0
		c-1.2-3.7-4.1-10.4-5.7-13.9l-6.2-13.2c-1.3-2.8-3.1-7.1-3.9-9.2h-0.1c-0.1,3.4-0.3,8.7-0.4,11.6c-0.1,4.1-0.3,10.3-0.3,15.9
		c0,4.5,0,5.6,3,6.2l2.3,0.4c0.5,0.4,0.5,1.7,0,2.1c-2.6-0.1-4.7-0.2-7.2-0.2c-2.2,0-4.7,0-7.3,0.2c-0.6-0.5-0.7-1.4-0.2-2.1
		l1.2-0.1c3.3-0.4,3.8-1.4,4.3-5.6c0.4-4.2,0.7-8.8,1-15.9c0.3-4.7,0.7-10.3,0.7-14.6c0-3.2-1-4.7-3.7-5.1l-2.3-0.4
		c-0.4-0.5-0.3-1.8,0.3-2.1c2.1,0.1,3.9,0.2,6.5,0.2s4.8,0,7.3-0.2c0.5,4,1.8,7.9,3.8,11.4l7.6,15.9c0.5,1.2,2.3,4.6,3.2,6.2
		c1.1-2.1,2.1-3.9,3.6-7.1l6.4-13.2c2.3-4.2,4.2-8.6,5.5-13.1c1.9,0.1,4.1,0.2,5.7,0.2c2.9,0,5.3,0,7.2-0.2c0.6,0.2,0.9,0.9,0.6,1.5
		c-0.1,0.2-0.2,0.4-0.4,0.5l-2.3,0.4c-3,0.4-3.7,1.6-3.7,5.2c0,10.2,0.1,20.3,0.6,30.5c0.2,4.6,1,5.1,3.1,5.4L580.4,345.5z"/>
	<path class="st1" d="M595.1,311.9c0-7.3-0.6-7.5-3.8-8l-1.1-0.2c-0.5-0.5-0.4-1.7,0.1-2.1c1.3,0,2.8,0.1,4.3,0.1c1.5,0,3.1,0,4.6,0
		h13.1c4.4,0,8.4,0,9.3-0.2c0.3,1.2,0.7,6.6,1.1,9.5c-0.3,0.6-1.6,0.7-2.2,0.3c-1.1-4-2.1-5.7-4.3-6.2c-1.8-0.4-3.6-0.6-5.5-0.6H606
		c-2.9,0-2.9,0.1-2.9,4.1v11.6c0,1.8,0,1.9,1.6,1.9h3.3c6,0,7.1,0,7.6-3l0.5-2.3c0.6-0.5,1.5-0.5,2.2,0c0,1.9-0.2,4.3-0.2,6.9
		s0.1,5,0.2,7.2c-0.7,0.5-1.5,0.5-2.2,0l-0.6-2.6c-0.5-2.9-1.6-3-7.6-3h-3.3c-1.6,0-1.6,0.1-1.6,1.9v8.7c0,3.5,0.1,6,1.2,7.1
		c1,1.2,2.1,1.5,7.8,1.5c8.7,0.1,10.3-1.9,12.6-7.4c0.7-0.5,1.7-0.3,2.2,0.4c-0.6,3.4-1.6,6.8-2.9,10c-1.5,0-3.7-0.1-6.6-0.1
		c-2.9,0-6.3,0-10.3,0h-7.9c-3,0-7.2,0-10.3,0.2c-0.6-0.5-0.6-1.4-0.1-2.1l2.6-0.2c3.2-0.3,3.8-0.6,3.8-7.8L595.1,311.9z"/>
	<path class="st1" d="M159.1,263.8c0-4.3-0.3-4.4-2.9-5l-0.9-0.2c-0.4-0.3-0.4-1.4,0.1-1.6c2.1,0.1,4.1,0.2,6,0.2
		c1.9,0,3.9,0,6.3-0.2c0.5,0.2,0.6,1.2,0,1.6l-1.1,0.2c-2.7,0.5-2.9,0.7-2.9,5v8.8c0,6.2,2.1,10.4,8.1,10.4c5.6,0,8-4.2,8-10.3v-5.8
		c0-6.2-0.3-7.7-3-8l-1.3-0.2c-0.4-0.4-0.4-1.1,0-1.5c0,0,0.1-0.1,0.1-0.1c2.1,0.1,3.4,0.2,5.2,0.2s3.2,0,5.1-0.2
		c0.4,0.4,0.5,1,0.1,1.5c0,0-0.1,0.1-0.1,0.1l-1.9,0.2c-1.6,0.2-2.1,1.9-2.1,8v6.2c0,7.9-3.7,12.1-11.6,12.1
		c-3.2,0.3-6.3-0.6-8.8-2.6c-1.9-1.9-2.7-4.7-2.7-8.8L159.1,263.8z"/>
	<path class="st1" d="M227.4,266.8c0-6.2-0.4-7.8-2.7-8l-2.1-0.2c-0.4-0.4-0.4-1.1,0-1.5c0,0,0.1-0.1,0.1-0.1
		c2.3,0.1,3.7,0.2,5.6,0.2c1.8,0,3.2,0,5.1-0.2c0.4,0.4,0.4,1.1,0,1.5c0,0,0,0,0,0l-1.9,0.2c-1.6,0.2-2.1,1.9-2.1,8v10.4
		c0,1.2,0,6.2,0.2,7.2c-0.3,0.4-0.8,0.7-1.3,0.5c-0.7-0.9-1.9-2.2-5.8-6.3l-9.4-10.1c-2.4-2.5-4-4.1-4.8-4.8c-0.2,0-0.2,0.7-0.2,2.6
		v8.2c0,6.2,0.4,7.8,2.7,8l2.1,0.2c0.4,0.4,0.4,1,0,1.4c0,0.1-0.1,0.1-0.2,0.1c-2.3-0.1-3.7-0.2-5.5-0.2s-3,0-5.2,0.2
		c-0.4-0.4-0.5-1.1-0.1-1.5c0,0,0.1-0.1,0.1-0.1l1.7-0.2c1.6-0.2,2.1-1.9,2.1-8v-11.1c0-2.1,0-2.9-1.3-3.8c-0.7-0.4-1.5-0.7-2.3-0.9
		l-0.9-0.2c-0.4-0.4-0.4-1,0-1.4c0-0.1,0.1-0.1,0.2-0.1c2.4,0.2,4.1,0.2,5.4,0.2c0.9,0,1.8-0.1,2.6-0.2c1.7,2.8,3.8,5.4,6.2,7.6
		l5.9,6c1.3,1.4,5,5.3,5.6,5.7c0.4-0.1,0.4-1,0.4-2.5V266.8z"/>
	<path class="st1" d="M254.1,263.8c0-4.3-0.2-4.5-2.9-5l-1.2-0.2c-0.4-0.3-0.4-1.4,0.1-1.6c2.4,0.1,4.3,0.2,6.3,0.2
		c2,0,3.9,0,6.3-0.2c0.5,0.2,0.6,1.2,0.1,1.6l-1.2,0.2c-2.7,0.5-2.9,0.7-2.9,5v13.9c0,4.3,0.2,4.5,2.9,5l1.2,0.2
		c0.4,0.4,0.4,1.1,0,1.5c0,0-0.1,0.1-0.1,0.1c-2.3-0.1-4.4-0.2-6.3-0.2c-1.9,0-3.9,0-6.3,0.2c-0.5-0.3-0.6-1-0.2-1.5
		c0,0,0.1-0.1,0.1-0.1l1.1-0.2c2.7-0.5,2.9-0.7,2.9-5L254.1,263.8z"/>
	<path class="st1" d="M282.7,263.9c-1.9-4.1-2.1-4.4-3.6-4.8l-2.1-0.5c-0.4-0.4-0.4-1.1,0-1.5c0,0,0,0,0,0c1.6,0.1,3.7,0.2,5.6,0.2
		c2.3,0,4.1,0,6.1-0.2c0.4,0.3,0.5,0.9,0.2,1.4c-0.1,0.1-0.1,0.2-0.2,0.2l-1.3,0.2c-1.6,0.2-1.6,1.1-0.2,4.1l3.1,6.9
		c1.6,3.6,2.6,5.9,3.5,7.9c1.3-2.6,2.3-5.2,3.5-7.8c1.2-2.6,3.1-7.2,3.7-9c0.4-1.3,0.3-1.7-1.5-2.1l-1-0.2c-0.4-0.3-0.5-1-0.1-1.4
		c0.1-0.1,0.1-0.1,0.2-0.2c1.8,0.1,3.4,0.2,5.1,0.2c1.5,0,3,0,4.4-0.2c0.5,0.2,0.7,0.9,0.5,1.4c0,0.1-0.1,0.1-0.1,0.2l-1.7,0.3
		c-1.9,0.4-2.2,0.9-4.2,5.2l-4.7,10.3c-1.9,4-3.7,8.5-4.4,10.6c-0.2,0.2-0.5,0.2-0.8,0.2c-0.3,0-0.5-0.1-0.7-0.2
		c-0.6-1.6-1.3-3.6-2.1-5.4L282.7,263.9z"/>
	<path class="st1" d="M325.9,263.8c0-4.3-0.2-4.5-2.6-5l-0.9-0.2c-0.5-0.3-0.3-1.3,0.1-1.6c0.9,0,1.9,0.1,2.8,0.1s2.1,0,3,0h8.8
		c2.7,0,5.2,0,5.8-0.2c0,0.7,0.4,3.7,0.7,6.3c-0.4,0.5-1.1,0.5-1.6,0.2c0,0,0,0,0,0c-0.2-1.1-0.6-2.1-1.1-3c-1-1.5-3.8-1.5-5.3-1.5
		h-2.8c-2.2,0-2.2,0-2.2,2.1v6.9c0,1.1,0,1.3,1.2,1.3h2.9c3.3,0,3.6-0.5,4.1-2.4l0.3-1.2c0.4-0.4,1-0.5,1.4-0.1c0,0,0.1,0.1,0.1,0.1
		c-0.1,1.8-0.1,2.9-0.1,4.4c0,1.4,0,2.7,0.1,4.5c-0.3,0.5-1,0.6-1.5,0.2c0,0,0,0-0.1-0.1l-0.3-1.2c-0.5-1.9-0.8-2.3-4.1-2.3h-2.9
		c-1.2,0-1.2,0.2-1.2,1.4v4.6c-0.2,1.5,0.1,3.1,0.7,4.5c0.6,0.6,1.7,0.9,5.2,0.9c4,0,6.3-0.2,8.1-5.2c0.4-0.4,1.1-0.4,1.5,0.1
		c0,0.1,0.1,0.1,0.1,0.2c-0.2,2.4-0.9,4.7-1.9,6.9c-1.9,0-3.7-0.1-5.5-0.1s-3.4,0-5.1,0h-5.5c-2.1,0-3.9,0-6.9,0.2
		c-0.5-0.2-0.5-1.3-0.1-1.6l1.7-0.2c2.7-0.3,2.9-0.7,2.9-5L325.9,263.8z"/>
	<path class="st1" d="M370.5,260.6c0-1.6,0.5-1.7,2.7-1.7c3.2-0.4,6.1,1.9,6.5,5.1c0,0.2,0,0.5,0,0.7c0,4.3-2.1,5.9-6.2,5.9
		c-3,0-3.1,0-3.1-1.6L370.5,260.6z M365.8,277.7c0,4.3-0.2,4.4-2.9,5l-0.9,0.2c-0.4,0.3-0.5,0.8-0.2,1.3c0.1,0.1,0.2,0.2,0.4,0.3
		c2.2-0.1,4.1-0.2,6.2-0.2s4,0,6.6,0.2c0.5-0.3,0.6-1,0.2-1.5c0,0-0.1-0.1-0.1-0.1l-1.4-0.2c-2.7-0.4-2.9-0.7-2.9-5v-4.4
		c0-0.9,0.1-1,1.7-1c0.9-0.1,1.9,0.3,2.5,1c1.3,2.1,3,4.7,4.5,6.7c2.7,3.5,5,4.7,8.7,4.7c0.9,0,1.8-0.1,2.6-0.3c0.3-0.3,0.3-0.7,0-1
		c-1.2-0.1-2.4-0.5-3.3-1.3c-3.2-2.8-5.9-6.2-7.9-10c-0.2-0.3-0.2-0.6,0-0.9c3.1-0.8,5.3-3.5,5.4-6.7c0-6.6-6.2-7.5-12-7.5
		c-3.4,0-6.9,0.1-10.3,0.4c-0.6,0.2-0.5,1.5,0,1.5l1.7,0.3c1.4,0.2,1.5,1.2,1.5,5.3L365.8,277.7z"/>
	<path class="st1" d="M411,271.6c-3-1.6-5.5-4-5.5-7.4c0-4.5,3.5-7.7,9.8-7.7c2,0.1,3.9,0.4,5.8,0.9c0.7,2,1,4.1,0.9,6.2
		c-0.4,0.5-1.1,0.5-1.6,0.2c0,0,0,0,0,0c-0.4-2.9-2.8-5.2-5.8-5.3c-3.7,0-5.1,2.1-5.1,4.1c0,2.1,1.7,3.6,4.1,4.9l3.8,2.1
		c3,1.5,5,4.5,5,7.9c0,4.8-4,7.9-10.1,7.9c-2.5,0.1-5-0.6-7.2-1.9c-0.9-2-1.4-4.2-1.3-6.4c0.2-0.5,0.8-0.6,1.3-0.4
		c0.1,0.1,0.2,0.2,0.3,0.3c0.5,2.2,3.2,6.7,7.4,6.7c3.2,0,5.2-1.6,5.2-4.5c0-2.1-0.8-4.1-4.3-5.8L411,271.6z"/>
	<path class="st1" d="M443.6,263.8c0-4.3-0.3-4.5-2.9-5l-1.2-0.2c-0.5-0.3-0.4-1.4,0-1.6c2.4,0.1,4.4,0.2,6.3,0.2c2,0,3.9,0,6.4-0.2
		c0.5,0.2,0.6,1.2,0,1.6l-1.2,0.2c-2.7,0.5-2.9,0.7-2.9,5v13.9c0,4.3,0.2,4.5,2.9,5l1.2,0.2c0.4,0.4,0.5,1,0.1,1.5
		c0,0-0.1,0.1-0.1,0.1c-2.4-0.1-4.4-0.2-6.4-0.2c-1.9,0-3.9,0-6.3,0.2c-0.4-0.4-0.5-1.1-0.1-1.5c0,0,0.1-0.1,0.1-0.1l1.2-0.2
		c2.7-0.5,2.9-0.7,2.9-5V263.8z"/>
	<path class="st1" d="M479.3,260.7c0-1.6,0-1.6-1.3-1.6h-2.1c-3.8,0-5.4,0.4-6.9,4.7c-0.5,0.4-1.1,0.3-1.5-0.2c0,0,0-0.1-0.1-0.1
		c0.7-2.7,1.4-5.8,1.7-7.3c0.3-0.2,0.8-0.2,1.1,0c0,1.3,0.9,1.2,3.4,1.2H491c2.3,0,2.7,0,3.2-1.2c0.4-0.2,0.9-0.2,1.1,0.2
		c-0.6,2.4-0.8,4.8-0.6,7.3c-0.3,0.4-1,0.5-1.4,0.2c-0.1,0-0.1-0.1-0.2-0.2c-0.4-4.1-2.1-4.5-5.8-4.5h-2.1c-1.2,0-1.4,0-1.4,1.6
		v17.1c0,4.3,0.3,4.7,2.9,5l1.7,0.2c0.4,0.4,0.4,1.1,0,1.5c0,0-0.1,0.1-0.1,0.1c-2.6-0.1-4.9-0.2-6.8-0.2c-1.9,0-4.2,0-6.8,0.2
		c-0.5-0.3-0.6-1-0.2-1.4c0,0,0.1-0.1,0.1-0.1l1.7-0.2c2.7-0.3,2.9-0.7,2.9-5L479.3,260.7z"/>
	<path class="st1" d="M520.2,276c0-1.9-0.6-3.8-1.7-5.3l-4.5-8.4c-1.3-2.5-1.9-3-3.5-3.4l-1.6-0.3c-0.4-0.4-0.4-1.1,0.1-1.5
		c0,0,0.1-0.1,0.1-0.1c2.1,0.1,3.5,0.2,5.7,0.2c1.9,0,3.3,0,5.3-0.2c0.4,0.3,0.5,0.9,0.2,1.3c-0.1,0.1-0.2,0.2-0.2,0.2l-0.9,0.2
		c-1.4,0.3-1.6,0.7-0.6,2.6l2.3,4.4c0.9,1.9,1.9,3.6,2.8,5.2c1-1.7,1.9-3.2,3-5.2l2.5-4.5c0.9-1.7,1-2.3-0.4-2.5l-1.3-0.2
		c-0.4-0.3-0.5-0.8-0.2-1.3c0.1-0.1,0.2-0.2,0.4-0.3c1.9,0.1,3.3,0.2,4.7,0.2c1.4,0,2.7,0,4.4-0.2c0.5,0.3,0.6,0.9,0.3,1.4
		c0,0.1-0.1,0.1-0.1,0.2l-1.5,0.3c-1.9,0.4-2.3,0.8-4.1,3.9l-3.8,6.2c-2.3,3.6-2.4,4.2-2.4,6v3.3c0,3.7,0.2,4.1,2.9,4.4l1.6,0.2
		c0.4,0.4,0.4,1.1-0.1,1.5c0,0,0,0-0.1,0.1c-2.7-0.1-4.8-0.2-6.7-0.2c-1.9,0-3.9,0-6.7,0.2c-0.5-0.3-0.6-1-0.2-1.5
		c0,0,0.1-0.1,0.1-0.1l1.6-0.2c2.7-0.3,2.9-0.7,2.9-4.4L520.2,276z"/>
	<path class="st1" d="M573.5,258c6.8,0,10,6.7,10,13.4c0,8.5-4.5,11.8-9.3,11.8c-7.2,0-10.1-6.9-10.1-13.3
		C564.1,261,569,258,573.5,258 M573.9,256.1c-9,0-15.3,6.3-15.3,14.6c0,7.8,5.7,14.1,15.3,14.1c8.8,0,15.1-6.2,15.1-14.4
		C589,262.9,583.9,256.2,573.9,256.1"/>
	<path class="st1" d="M604.7,263.8c0-4.3-0.3-4.4-2.6-5l-0.7-0.2c-0.4-0.3-0.4-1.4,0.1-1.6c0.8,0,1.7,0.1,2.7,0.1s1.9,0,2.9,0h8.6
		c2.8,0,5.1,0,6-0.2c0,0.7,0.1,3.7,0.3,6.4c-0.3,0.5-0.9,0.6-1.4,0.3c-0.1-0.1-0.2-0.2-0.3-0.3c-0.2-1.1-0.6-2.1-1.1-3
		c-1.1-1.5-3.8-1.5-5.3-1.5h-2.4c-1.9,0-2.1,0-2.1,2.1v7.2c0,1.2,0,1.3,1.2,1.3h3.4c3.3,0,3.6-0.5,4.1-2.3l0.3-1.2
		c0.4-0.4,1-0.4,1.4,0c0,0,0.1,0.1,0.1,0.1c0,1.8,0,2.9,0,4.3s0,2.7,0,4.5c-0.3,0.5-1,0.5-1.4,0.2c0,0-0.1-0.1-0.1-0.1l-0.3-1.2
		c-0.5-1.9-0.8-2.4-4.1-2.4h-3.4c-1.2,0-1.2,0.2-1.2,1.4v4.9c0,4.3,0.2,4.7,2.9,5l1.9,0.2c0.4,0.4,0.4,1.1,0,1.5
		c0,0-0.1,0.1-0.1,0.1c-3.1-0.1-5.2-0.2-7.1-0.2s-3.9,0-6.3,0.2c-0.5-0.3-0.6-1-0.2-1.5c0,0,0.1-0.1,0.1-0.1l1.2-0.2
		c2.7-0.4,2.9-0.7,2.9-5L604.7,263.8z"/>
</g>
</svg>
