<?xml version="1.0" encoding="UTF-8" standalone="no"?>
<!DOCTYPE svg PUBLIC "-//W3C//DTD SVG 1.1//EN" "http://www.w3.org/Graphics/SVG/1.1/DTD/svg11.dtd">
<svg version="1.1" xmlns="http://www.w3.org/2000/svg" xmlns:xlink="http://www.w3.org/1999/xlink" preserveAspectRatio="xMidYMid meet" viewBox="0 0 640 150" width="640" height="150"><defs><path d="M46.03 29.15L39.26 27.78L43.78 32.88L39.26 37.99L46.03 36.61L48.19 43.09L50.35 36.61L57.03 37.99L52.51 32.88L57.03 27.78L50.35 29.15L48.19 22.67L46.03 29.15M48.29 27.68L49.47 31.02L52.91 30.33L50.55 32.98L52.91 35.63L49.47 34.94C48.76 36.95 48.37 38.06 48.29 38.28C47.8 37.01 47.11 34.94 47.11 34.94C46.89 34.99 45.74 35.22 43.68 35.63L46.03 32.98L43.68 30.33L47.11 31.02L48.29 27.68" id="a1k5ZMLAHf"></path><path d="M63.31 74.21C63.41 74.01 63.61 73.91 63.8 73.82C63.82 73.82 63.98 73.82 64 73.82C64 73.82 64 73.62 64 73.62C63.82 73.62 62.41 73.62 62.23 73.62C62.23 73.72 62.23 73.72 62.23 73.82C62.26 73.82 62.5 73.82 62.53 73.82C62.72 73.82 62.82 73.91 62.62 74.31C62.13 75.48 61.64 76.66 61.25 77.74C61.22 77.67 61.05 77.31 60.76 76.66C60.41 75.72 60.21 75.2 60.17 75.09C59.97 74.7 59.88 74.31 59.78 73.91C59.78 73.91 59.78 73.82 59.97 73.72C59.99 73.72 60.15 73.72 60.17 73.72C60.27 73.62 60.27 73.52 60.17 73.52C60.17 73.52 60.17 73.52 60.17 73.52C59.95 73.52 58.23 73.52 58.01 73.52C58.01 73.52 58.01 73.72 58.01 73.72C58.03 73.72 58.19 73.72 58.21 73.72C58.5 73.72 58.6 73.91 58.89 74.5C59.04 74.87 60.22 77.77 60.37 78.13C60.46 78.43 60.66 78.92 60.76 79.21C60.77 79.21 60.84 79.21 60.96 79.21C61.01 79.21 61.05 79.21 61.05 79.21C61.15 78.82 61.64 77.74 61.94 76.96C61.97 76.9 62.13 76.6 62.43 76.07C62.82 75.09 63.11 74.47 63.31 74.21Z" id="a2xDzYIOmb"></path><path d="M66.75 79.02C66.77 79.02 66.92 79.02 66.94 79.02C67.04 79.12 67.04 79.21 66.94 79.21C66.72 79.21 64.91 79.21 64.69 79.21C64.59 79.12 64.59 79.02 64.69 79.02C64.7 79.02 64.86 79.02 64.88 79.02C65.27 79.02 65.37 79.02 65.37 78.04C65.37 77.71 65.37 75.12 65.37 74.8C65.37 73.91 65.37 73.82 64.88 73.82C64.86 73.82 64.7 73.82 64.69 73.82C64.69 73.82 64.69 73.62 64.69 73.62C64.91 73.62 66.72 73.62 66.94 73.62C66.94 73.62 66.94 73.82 66.94 73.82C66.92 73.82 66.77 73.82 66.75 73.82C66.35 73.82 66.26 73.82 66.26 74.8C66.26 75.01 66.26 76.09 66.26 78.04C66.26 78.63 66.42 78.95 66.75 79.02Z" id="c4nelOJsDd"></path><path d="M69.49 73.91C69.45 73.91 69.05 73.91 69 73.91C68.22 73.91 68.02 73.91 67.73 74.7C67.63 74.8 67.53 74.8 67.43 74.7C67.53 74.21 67.73 73.72 67.73 73.42C67.75 73.42 67.9 73.42 67.92 73.42C67.92 73.62 68.12 73.62 68.61 73.62C68.96 73.62 71.7 73.62 72.05 73.62C72.44 73.62 72.54 73.62 72.64 73.42C72.64 73.42 72.64 73.42 72.64 73.42C72.64 73.42 72.73 73.42 72.73 73.42C72.64 73.91 72.54 74.31 72.64 74.8C72.54 74.9 72.44 74.9 72.44 74.8C72.34 74.11 72.15 74.01 71.26 74.01C71.21 74.01 70.82 74.01 70.77 74.01C70.57 74.01 70.57 74.01 70.57 74.4C70.57 74.78 70.57 77.76 70.57 78.13C70.57 79.02 70.57 79.02 71.07 79.12C71.09 79.12 71.33 79.12 71.36 79.12C71.46 79.21 71.46 79.31 71.36 79.31C71.11 79.31 69.15 79.31 68.91 79.31C68.81 79.21 68.81 79.12 68.91 79.12C68.91 79.12 68.91 79.12 68.91 79.12C68.94 79.12 69.17 79.12 69.2 79.12C69.59 79.12 69.69 79.12 69.69 78.13C69.69 77.88 69.69 76.6 69.69 74.31C69.69 74.04 69.63 73.91 69.49 73.91Z" id="e18y6cS1rJ"></path><path d="M75.78 77.45C75.82 77.55 76.13 78.33 76.17 78.43C76.27 78.82 76.17 78.82 75.97 78.92C75.95 78.92 75.8 78.92 75.78 78.92C75.68 79.02 75.68 79.12 75.78 79.12C75.99 79.12 77.72 79.12 77.94 79.12C78.03 79.02 78.03 78.92 77.94 78.92C77.93 78.92 77.85 78.92 77.84 78.92C77.35 78.92 77.35 78.82 77.15 78.23C77.02 77.87 76 74.96 75.88 74.6C75.78 74.21 75.68 73.82 75.48 73.42C75.48 73.42 75.38 73.42 75.38 73.42C75.19 73.62 74.99 73.72 74.8 73.82C74.8 74.01 74.7 74.21 74.6 74.4C74.48 74.71 73.54 77.14 73.42 77.45C73.22 77.94 73.13 78.23 73.03 78.53C72.93 78.72 72.83 78.92 72.54 78.92C72.51 78.92 72.27 78.92 72.24 78.92C72.15 79.02 72.15 79.12 72.24 79.12C72.42 79.12 73.83 79.12 74.01 79.12C74.01 79.12 74.01 78.92 74.01 78.92C73.98 78.92 73.75 78.92 73.72 78.92C73.42 78.92 73.42 78.92 73.52 78.33C73.55 78.24 73.78 77.54 73.81 77.45C73.81 77.25 73.91 77.25 74.11 77.25C74.19 77.25 74.62 77.25 75.38 77.25C75.58 77.25 75.71 77.32 75.78 77.45ZM74.3 76.47C74.33 76.4 74.46 76.07 74.7 75.48L74.89 74.8C74.89 74.8 74.89 74.8 74.89 74.8C74.99 74.99 75.09 75.29 75.09 75.48C75.13 75.58 75.44 76.37 75.48 76.47C75.48 76.76 75.48 76.76 75.29 76.76C75.23 76.77 74.93 76.8 74.4 76.86C74.21 76.86 74.17 76.73 74.3 76.47Z" id="a43QIvVy1b"></path><path d="M61.25 83.53C61.45 83.44 61.64 83.44 61.84 83.44C63.11 83.44 64 84.22 64 85.99C64 87.75 63.41 88.54 61.94 88.54C61.15 88.54 61.05 88.05 61.05 87.26C61.07 87.06 61.13 86.05 61.25 84.22C61.25 83.83 61.25 83.6 61.25 83.53ZM59.97 88.54C59.95 88.54 59.8 88.54 59.78 88.54C59.78 88.54 59.78 88.74 59.78 88.74C59.88 88.74 60.37 88.74 61.25 88.74C61.66 88.74 61.89 88.74 61.94 88.74C62.62 88.83 63.31 88.64 64 88.34C64.88 87.85 65.37 86.87 65.27 85.89C65.37 84.81 64.69 83.73 63.7 83.34C63.11 83.14 62.53 83.04 61.84 83.04C61.15 83.04 60.46 83.04 59.78 83.04C59.78 83.14 59.78 83.24 59.78 83.24C59.8 83.24 59.95 83.24 59.97 83.24C60.37 83.24 60.37 83.44 60.37 84.22C60.37 84.44 60.37 85.56 60.37 87.56C60.37 88.21 60.24 88.54 59.97 88.54Z" id="a5PQQXaZN4"></path><path d="M65.76 83.44C65.76 83.44 65.68 83.44 65.67 83.44C65.57 83.34 65.57 83.24 65.67 83.24C65.67 83.24 65.67 83.24 65.67 83.24C65.88 83.24 67.61 83.24 67.83 83.24C67.92 83.34 67.92 83.44 67.83 83.44C67.81 83.44 67.65 83.44 67.63 83.44C67.24 83.44 67.14 83.44 67.14 84.42C67.14 84.62 67.14 86.27 67.14 86.48C67.14 87.66 67.43 88.64 68.61 88.64C69.79 88.64 70.18 87.75 70.18 86.48C70.18 86.37 70.18 85.51 70.18 85.4C70.18 84.81 70.18 84.22 69.99 83.73C69.89 83.63 69.79 83.53 69.59 83.53C69.57 83.53 69.42 83.53 69.4 83.53C69.4 83.53 69.4 83.34 69.4 83.34C69.59 83.34 71.16 83.34 71.36 83.34C71.46 83.44 71.46 83.53 71.36 83.53C71.36 83.53 71.36 83.53 71.36 83.53C71.34 83.53 71.18 83.53 71.16 83.53C71.07 83.53 70.87 83.53 70.77 83.73C70.67 84.32 70.67 84.81 70.67 85.4C70.67 85.5 70.67 86.28 70.67 86.38C70.77 87.07 70.57 87.85 70.08 88.44C69.69 88.93 69.1 89.13 68.51 89.13C67.92 89.23 67.24 89.03 66.84 88.54C66.45 88.05 66.26 87.36 66.26 86.67C66.26 86.52 66.26 85.77 66.26 84.42C66.26 83.83 66.09 83.5 65.76 83.44Z" id="frnZySftw"></path><path d="M74.3 83.44C74.32 83.44 74.48 83.44 74.5 83.44C74.5 83.44 74.5 83.24 74.5 83.14C74.28 83.14 72.47 83.14 72.24 83.14C72.24 83.14 72.24 83.34 72.24 83.44C72.25 83.44 72.33 83.44 72.34 83.44C72.73 83.44 72.83 83.44 72.83 84.42C72.83 84.74 72.83 87.33 72.83 87.66C72.83 88.54 72.83 88.54 72.34 88.64C72.32 88.64 72.16 88.64 72.15 88.64C72.15 88.64 72.15 88.83 72.15 88.83C72.55 88.83 75.77 88.83 76.17 88.83C76.37 88.44 76.46 88.05 76.46 87.56C76.37 87.46 76.27 87.46 76.27 87.56C76.27 87.56 76.27 87.56 76.27 87.56C75.88 88.44 75.78 88.44 74.8 88.44C73.91 88.44 74.01 88.44 73.91 88.25C73.81 87.95 73.72 87.66 73.81 87.36C73.81 87.17 73.81 86.18 73.81 84.42C73.81 83.83 73.98 83.5 74.3 83.44Z" id="bDCt7yEBW"></path><path d="M112.29 62.23C107.19 64 101.69 64.39 96.29 63.41C86.67 62.04 82.75 64.69 82.75 64.69C82.75 64.69 78.72 62.04 69.1 63.41C63.8 64.39 58.3 64 53.1 62.23C53.1 62.53 53.1 64.04 53.1 66.75L50.45 66.75L50.45 100.91C67.18 100.91 76.47 100.91 78.33 100.91C79.51 102.09 81.08 102.77 82.75 102.58C84.42 102.67 85.99 102.09 87.07 100.91C88.92 100.91 98.22 100.91 114.94 100.91L114.94 66.75L112.29 66.75C112.29 64.04 112.29 62.53 112.29 62.23ZM68.51 96.39C58.99 97.57 55.46 95.41 55.46 95.41C55.46 92.41 55.46 68.38 55.46 65.37C55.46 65.37 59.48 66.94 69.1 65.77C78.72 64.59 81.47 66.85 81.47 66.85C81.47 68.89 81.47 79.1 81.47 97.47C79.18 95.97 74.86 95.61 68.51 96.39ZM96.88 96.39C87.26 95.12 83.92 97.47 83.92 97.47C83.92 94.41 83.92 69.91 83.92 66.85C83.92 66.85 86.67 64.59 96.29 65.77C105.91 66.94 109.94 65.37 109.94 65.37C109.94 67.38 109.94 77.39 109.94 95.41C107.65 96.85 103.29 97.18 96.88 96.39Z" id="f4KucPyAtD"></path><path d="M90.5 75.09C90.5 75.19 90.4 75.19 90.3 75.09C90.3 75.09 90.3 75.09 90.3 75.09C90.21 74.4 89.62 73.91 88.83 73.91C87.85 73.91 86.97 74.7 86.97 76.27C86.97 77.84 87.95 78.82 88.93 78.82C89.62 78.82 90.3 78.33 90.5 77.64C90.5 77.55 90.6 77.55 90.7 77.64C90.7 77.64 90.7 77.64 90.7 77.64C90.7 78.04 90.5 78.53 90.3 78.92C90.28 78.92 90.04 78.92 90.01 78.92C89.62 79.02 89.22 79.12 88.83 79.12C88.15 79.12 87.46 78.92 86.97 78.53C86.28 78.04 85.89 77.15 85.89 76.27C85.89 75.48 86.18 74.7 86.77 74.11C87.36 73.62 88.05 73.42 88.83 73.42C89.22 73.42 89.72 73.52 90.11 73.62C90.13 73.62 90.29 73.62 90.3 73.62C90.3 73.82 90.3 74.31 90.4 74.9" id="b18noz5IZL"></path><path d="M91.48 73.82C91.47 73.82 91.39 73.82 91.38 73.82C91.38 73.82 91.38 73.62 91.38 73.62C91.75 73.62 94.65 73.62 95.02 73.62C95.02 73.72 95.02 74.4 95.11 74.8C95.02 74.9 94.92 74.9 94.82 74.8C94.82 74.8 94.82 74.8 94.82 74.8C94.72 74.31 94.53 74.11 94.33 74.01C94.13 74.01 93.84 74.01 93.64 74.01C93.59 74.01 93.2 74.01 93.15 74.01C92.86 74.01 92.86 74.01 92.86 74.5C92.86 74.66 92.86 75.92 92.86 76.07C92.86 76.27 92.86 76.27 93.05 76.27C93.08 76.27 93.32 76.27 93.35 76.27C94.03 76.27 94.23 76.27 94.23 75.88C94.23 75.85 94.23 75.61 94.23 75.58C94.23 75.58 94.43 75.58 94.53 75.58C94.62 75.58 94.53 76.07 94.53 76.47C94.53 76.76 94.53 77.06 94.53 77.35C94.53 77.64 94.33 77.35 94.23 77.35C94.23 77.32 94.23 77.08 94.23 77.06C94.23 76.66 94.03 76.66 93.35 76.66C93.32 76.66 93.08 76.66 93.05 76.66C92.86 76.66 92.86 76.66 92.86 76.86C92.86 76.97 92.86 77.83 92.86 77.94C92.86 78.43 92.86 78.72 92.96 78.82C93.05 78.92 93.05 79.02 93.74 79.02C94.82 79.02 94.92 78.82 95.11 78.13C95.21 78.04 95.31 78.04 95.41 78.13C95.41 78.13 95.41 78.13 95.41 78.13C95.31 78.53 95.21 79.02 95.11 79.41C94.71 79.41 91.49 79.41 91.09 79.41C90.99 79.31 90.99 79.21 91.09 79.21C91.09 79.21 91.09 79.21 91.09 79.21C91.12 79.21 91.36 79.21 91.38 79.21C91.78 79.21 91.88 79.21 91.88 78.23C91.88 78 91.91 76.86 91.97 74.8C91.97 74.14 91.81 73.82 91.48 73.82Z" id="aSmV9gvEH"></path><path d="M97.76 74.01C97.76 73.91 97.76 73.91 98.06 73.91C99.43 73.91 100.32 74.7 100.32 76.47C100.32 78.23 99.63 79.02 98.26 79.02C97.37 79.02 97.67 78.53 97.67 77.74C97.67 77.54 97.71 76.53 97.76 74.7C97.76 74.31 97.76 74.08 97.76 74.01ZM96.39 79.02C96.37 79.02 96.21 79.02 96.19 79.02C96.19 79.02 96.19 79.21 96.19 79.21C96.4 79.21 98.05 79.21 98.26 79.21C98.84 79.21 99.53 79.12 100.12 78.82C101 78.33 101.59 77.35 101.59 76.37C101.69 75.29 101 74.21 100.02 73.82C99.43 73.62 98.84 73.52 98.26 73.52C97.47 73.52 96.98 73.52 96.39 73.52C96.29 73.62 96.29 73.72 96.39 73.72C96.41 73.72 96.57 73.72 96.59 73.72C96.98 73.72 96.98 73.82 96.98 74.7C96.98 74.92 96.98 76.03 96.98 78.04C96.91 78.69 96.72 79.02 96.39 79.02Z" id="f4w7Apdei"></path><path d="M104.93 73.82C106.21 73.82 106.7 75.29 106.7 76.56C106.7 78.23 106.01 79.02 105.13 79.02C103.85 79.02 103.36 77.45 103.36 76.27C103.36 74.5 104.15 73.82 104.93 73.82M104.93 73.52C103.36 73.52 102.18 74.8 102.18 76.37C102.18 76.47 102.18 76.47 102.18 76.56C102.08 78.04 103.26 79.31 104.73 79.41C104.83 79.41 104.83 79.41 104.93 79.41C106.5 79.41 107.68 78.13 107.68 76.56C107.68 76.47 107.68 76.47 107.68 76.37C107.78 74.9 106.7 73.52 105.22 73.42C105.13 73.52 105.03 73.52 104.93 73.52" id="c2aciEleLx"></path><path d="M88.05 88.64C87.85 88.25 87.75 87.75 87.85 87.36C87.95 87.26 88.05 87.26 88.05 87.36C88.05 87.36 88.05 87.36 88.05 87.36C88.24 87.85 88.64 88.74 89.52 88.74C90.01 88.83 90.4 88.44 90.5 87.95C90.5 87.95 90.5 87.85 90.5 87.85C90.5 87.26 90.21 86.77 89.62 86.58C89.58 86.56 89.26 86.4 89.22 86.38C88.54 86.09 88.15 85.4 88.05 84.71C88.05 83.83 88.64 83.14 89.91 83.14C90.3 83.14 90.7 83.24 91.09 83.34C91.19 83.73 91.29 84.12 91.29 84.52C91.19 84.61 91.09 84.61 90.99 84.52C90.99 84.52 90.99 84.52 90.99 84.52C90.89 83.93 90.4 83.53 89.81 83.53C89.32 83.53 88.93 83.83 88.83 84.32C88.83 84.32 88.83 84.42 88.83 84.42C88.93 84.91 89.22 85.3 89.62 85.4C89.67 85.43 90.06 85.66 90.11 85.69C90.8 85.99 91.19 86.67 91.29 87.36C91.29 88.34 90.5 89.03 89.62 89.03C89.52 89.03 89.42 89.03 89.32 89.03C88.93 88.93 88.44 88.83 88.05 88.64" id="c3mApw5Gam"></path><path d="M92.66 83.44C92.63 83.44 92.4 83.44 92.37 83.44C92.37 83.44 92.37 83.24 92.37 83.24C92.96 83.24 93.54 83.24 94.23 83.24C94.82 83.24 95.41 83.34 96 83.53C96.49 83.83 96.69 84.32 96.69 84.81C96.69 85.79 95.8 86.48 94.92 86.48C94.92 86.48 94.92 86.48 94.92 86.48C94.9 86.48 94.74 86.48 94.72 86.48C94.72 86.38 94.72 86.38 94.72 86.28C95.41 86.18 95.8 85.5 95.7 84.91C95.8 84.22 95.31 83.63 94.62 83.63C94.62 83.63 94.53 83.63 94.53 83.63C94.13 83.63 94.13 83.63 94.13 84.02C94.13 84.4 94.13 87.38 94.13 87.75C94.13 88.64 94.13 88.74 94.62 88.74C94.65 88.74 94.89 88.74 94.92 88.74C94.92 88.74 94.92 88.93 94.92 88.93C94.68 88.93 92.8 88.93 92.56 88.93C92.56 88.93 92.56 88.74 92.56 88.74C92.58 88.74 92.74 88.74 92.76 88.74C93.15 88.74 93.25 88.74 93.25 87.75C93.24 87.53 93.17 86.42 93.05 84.42C93.05 83.83 92.92 83.5 92.66 83.44Z" id="d1kaVyP9Lb"></path><path d="M97.47 88.54C97.44 88.54 97.21 88.54 97.18 88.54C97.18 88.54 97.18 88.74 97.18 88.74C97.58 88.74 100.8 88.74 101.2 88.74C101.4 88.34 101.49 87.95 101.59 87.46C101.49 87.36 101.4 87.36 101.3 87.46C101 88.15 100.91 88.34 99.92 88.34C99.24 88.34 99.04 88.34 98.94 88.15C98.84 87.85 98.75 87.56 98.84 87.26C98.84 87.17 98.84 86.38 98.84 86.28C98.84 86.09 98.84 86.09 99.04 86.09C99.08 86.09 99.39 86.09 99.43 86.09C100.12 86.09 100.32 86.09 100.32 86.48C100.32 86.51 100.32 86.74 100.32 86.77C100.32 86.77 100.51 86.77 100.61 86.77C100.71 86.77 100.61 86.18 100.61 85.89C100.61 85.6 100.61 85.3 100.61 85.1C100.61 84.91 100.42 85.1 100.32 85.1C100.32 85.13 100.32 85.37 100.32 85.4C100.32 85.79 100.12 85.79 99.43 85.79C99.39 85.79 99.08 85.79 99.04 85.79C98.84 85.79 98.84 85.79 98.84 85.6C98.84 85.43 98.84 84.09 98.84 83.93C98.84 83.44 98.84 83.44 99.24 83.44C99.3 83.44 99.77 83.44 99.83 83.44C100.02 83.44 100.22 83.44 100.51 83.44C100.81 83.44 100.91 83.73 101 84.22C101 84.22 101.2 84.22 101.3 84.22C101.3 83.83 101.3 83.14 101.2 83.04C100.84 83.04 97.93 83.04 97.57 83.04C97.57 83.04 97.57 83.24 97.57 83.34C97.58 83.34 97.66 83.34 97.67 83.34C98.06 83.34 98.16 83.34 98.16 84.32C98.14 84.53 98.08 85.61 97.96 87.56C97.96 88.21 97.8 88.54 97.47 88.54Z" id="elNhNI5Vh"></path><path d="M102.67 88.64C102.48 88.25 102.38 87.75 102.48 87.36C102.48 87.36 102.67 87.36 102.77 87.36C102.97 87.85 103.36 88.74 104.15 88.74C104.64 88.83 105.03 88.44 105.13 87.95C105.13 87.85 105.13 87.85 105.13 87.75C105.13 87.17 104.83 86.67 104.34 86.48C104.3 86.46 103.99 86.3 103.95 86.28C103.26 85.99 102.87 85.3 102.77 84.61C102.77 83.73 103.36 83.04 104.64 83.04C105.03 83.04 105.42 83.14 105.81 83.24C105.91 83.63 106.01 84.02 106.01 84.42C106.01 84.42 105.81 84.42 105.72 84.42C105.62 83.83 105.13 83.44 104.64 83.44C104.15 83.44 103.75 83.73 103.65 84.22C103.65 84.22 103.65 84.32 103.65 84.32C103.75 84.81 104.05 85.2 104.44 85.3C104.49 85.33 104.88 85.57 104.93 85.6C105.62 85.89 106.01 86.58 106.11 87.26C106.11 88.25 105.32 88.93 104.44 88.93C104.34 88.93 104.34 88.93 104.24 88.93C103.56 88.93 103.07 88.83 102.67 88.64" id="az5wRzqj"></path><path d="M27.88 12.47C27.88 42.33 27.88 58.92 27.88 62.23C27.88 109.74 58.01 135.17 82.65 149.01C107.29 135.17 137.42 109.74 137.42 62.23C137.42 58.92 137.42 42.33 137.42 12.47L82.65 12.47L27.88 12.47ZM82.65 140.27C79.9 138.7 77.35 137.13 74.6 135.17C77.05 133.69 79.8 132.81 82.65 132.71C85.49 132.81 88.34 133.6 90.7 135.17C87.95 137.23 85.3 138.7 82.65 140.27M101.69 126.63C100.81 127.61 99.63 128.29 98.35 128.49C97.67 128.59 96.98 128.69 96.29 128.69C90.7 128.69 89.52 125.35 82.65 125.35C75.88 125.35 74.6 128.69 69 128.69C68.32 128.69 67.63 128.59 66.94 128.49C65.67 128.2 64.49 127.51 63.61 126.63C60.86 124.27 58.3 121.62 55.95 118.87C61.05 118.87 62.33 122.01 69 122.01C74.6 122.01 75.78 118.67 82.65 118.67C89.52 118.67 90.7 122.01 96.29 122.01C102.97 122.01 104.15 118.97 109.35 118.87C106.89 121.62 104.34 124.17 101.69 126.63M114.84 111.71C114.84 111.71 114.84 111.71 114.84 111.71C113.47 111.21 111.9 111.02 110.43 111.02C104.73 111.02 103.07 114.36 96.29 114.36C92.27 114.36 90.4 112.49 87.07 111.61C87.07 110.8 87.07 104.36 87.07 103.56C87.07 103.56 86.08 104.93 82.75 104.93C79.41 104.93 78.43 103.36 78.43 103.36C78.43 104.17 78.43 110.61 78.43 111.41C75.09 112.39 73.32 114.16 69.2 114.16C62.43 114.16 60.76 110.82 55.07 110.82C53.59 110.82 52.02 111.02 50.65 111.51C50.65 111.51 50.65 111.51 50.65 111.51C40.54 97.37 35.24 80.39 35.43 62.92C35.43 60.05 35.43 45.68 35.43 19.83L130.06 19.83L129.96 63.02C126.62 85.99 121.58 102.22 114.84 111.71Z" id="aEyprp6zM"></path><path d="M105.91 53.4L112.29 57.03L112.29 42.01L105.91 45.64L87.07 45.64L87.07 31.12L90.8 24.74L74.6 24.74L78.43 31.12L78.43 45.64L59.48 45.64L53.1 42.01L53.1 57.03L59.48 53.4L78.43 53.4C78.43 57.99 78.43 60.54 78.43 61.06C79.9 61.25 81.47 61.64 82.75 62.33C84.12 61.64 85.59 61.25 87.07 61.06C87.07 60.54 87.07 57.99 87.07 53.4L87.07 53.4L105.91 53.4Z" id="b1zuj3XL4"></path><path d="M75.48 86.09L75.48 86.09L75.78 86.09C75.78 86.09 75.78 86.09 75.78 86.09C75.78 85.89 75.97 85.6 76.27 85.6C76.46 85.6 76.66 85.69 76.86 85.79C76.86 85.79 76.86 85.79 76.86 85.79C77.54 86.09 77.64 86.09 77.84 86.09C78.03 86.09 78.62 85.79 78.72 85.1C78.72 85.1 78.72 85.1 78.72 85.1L78.53 85.1C78.53 85.1 78.53 85.1 78.53 85.1C78.53 85.5 78.33 85.69 78.03 85.69C77.74 85.69 77.84 85.69 77.25 85.4C76.96 85.2 76.66 85.1 76.37 85.1C76.27 85.1 75.58 85.1 75.48 86.09" id="f2zk9rrRe5"></path><path d="M197.59 101.3C197 101.99 196.22 102.38 195.34 102.28C194.26 100.91 192.29 98.55 187.48 93.06C185.9 91.26 173.26 76.89 171.68 75.09C167.26 70.18 165.1 67.63 164.02 66.65C163.83 66.65 163.83 67.44 163.83 70.97C163.83 72.27 163.83 82.63 163.83 83.93C163.83 88.93 163.83 95.21 165 97.18C165.89 98.26 167.07 98.85 168.44 98.85C168.59 98.87 169.76 99.02 169.91 99.04C170.5 99.53 170.5 100.81 169.81 101.1C167.26 101.01 164.71 100.91 162.16 100.91C159.61 100.91 157.54 100.91 155.19 101.1C154.6 100.61 154.5 99.73 154.99 99.14C154.99 99.14 154.99 99.14 155.09 99.04C155.24 99.01 156.42 98.78 156.56 98.75C157.84 98.55 159.02 98.26 159.51 97.18C160.39 95.12 160.39 89.13 160.39 83.93C160.39 82.34 160.39 69.61 160.39 68.02C160.39 62.72 160.39 61.74 158.13 59.78C157.05 59.19 155.88 58.7 154.6 58.4C154.5 58.39 153.72 58.23 153.62 58.21C153.13 57.82 153.22 56.44 153.91 56.15C156.46 56.44 160.19 56.34 161.86 56.34C163.24 56.34 164.91 56.34 166.48 56.15C167.65 59.09 175.02 67.53 177.37 70.09C178.05 70.81 183.47 76.62 184.15 77.35C186.99 80.49 193.27 87.56 193.96 88.05C194.16 87.85 194.16 87.46 194.16 86.38C194.16 85.07 194.16 74.54 194.16 73.23C194.16 68.22 194.16 61.94 192.88 59.98C192.1 58.9 190.82 58.31 189.54 58.31C189.39 58.29 188.13 58.13 187.97 58.11C187.38 57.62 187.38 56.34 188.07 56.05C190.72 56.15 193.18 56.25 195.83 56.25C198.48 56.25 200.44 56.25 202.89 56.05C203.48 56.54 203.58 57.33 203.09 57.91C203.09 57.91 202.99 58.01 202.99 58.01C202.83 58.05 201.58 58.37 201.42 58.4C200.15 58.6 199.07 58.9 198.57 59.98C197.69 62.04 197.69 67.93 197.69 73.23C197.67 74.31 197.57 79.71 197.4 89.42C197.4 96.29 197.46 100.25 197.59 101.3Z" id="a18u8mEAfa"></path><path d="M230.67 58.01C241.37 58.01 245.99 69.79 245.99 80C245.99 93.55 239.8 99.34 232.15 99.34C220.56 99.34 216.64 86.67 216.64 77.35C216.64 63.02 224 58.01 230.67 58.01M231.65 55.36C218.89 54.77 208 64.79 207.51 77.55C207.51 78.13 207.51 78.72 207.51 79.31C207.51 91.48 216.24 101.99 231.56 101.99C245.1 101.99 255.21 92.07 255.21 78.82C255.11 66.55 247.07 55.36 231.65 55.36" id="ej37424As"></path><path d="M274.26 59.19C274.05 59.19 272.4 59.19 272.19 59.19C266.01 59.19 264.15 59.98 261.69 65.37C260.91 65.77 260.02 65.57 259.53 64.88C260.61 61.55 261.49 58.21 262.18 54.77C262.38 54.58 262.67 54.48 262.97 54.58C263.26 54.58 263.46 54.67 263.65 54.77C264.05 56.44 264.93 56.54 269.54 56.54C271.94 56.54 291.1 56.54 293.49 56.54C296.83 56.54 297.81 56.34 298.6 54.77C298.8 54.67 299.09 54.58 299.38 54.58C299.68 54.58 300.07 54.67 300.27 54.87C299.48 58.4 299.19 62.04 299.29 65.57C298.7 66.06 297.91 66.16 297.22 65.77C296.34 60.47 295.07 59.29 287.9 59.29C287.69 59.29 286.04 59.29 285.84 59.29C284.07 59.29 283.97 59.39 283.97 62.23C283.97 65.14 283.97 88.38 283.97 91.29C283.97 98.45 284.56 98.65 287.8 98.94C288.04 98.96 289.92 99.12 290.16 99.14C290.65 99.73 290.65 100.61 290.06 101.2C286.13 101.1 283.09 101.01 280.15 101.01C277.2 101.01 274.06 101.01 269.74 101.2C269.15 100.71 269.15 99.83 269.64 99.14C269.93 99.11 272.2 98.88 272.49 98.85C275.63 98.55 276.22 98.36 276.22 91.19C276.21 89.25 276.14 79.57 276.02 62.13C276.02 60.17 275.43 59.19 274.26 59.19Z" id="b32aPhWtNz"></path><path d="M323.63 58.9C329.52 58.9 332.96 63.51 332.96 68.91C332.96 75.29 329.91 78.53 323.34 78.53C320.1 78.53 320.1 78.43 320.1 76.27C320.1 75.33 320.1 70.66 320.1 62.23C320.1 60.01 321.27 58.9 323.63 58.9ZM308.61 98.94C308.46 98.96 307.29 99.12 307.14 99.14C306.65 99.63 306.65 100.52 307.14 101.1C307.14 101.1 307.24 101.2 307.24 101.2C310.28 101.1 313.32 101.01 316.37 101.01C319.41 101.01 322.45 101.01 325.3 101.2C325.89 100.71 325.99 99.83 325.4 99.14C325.25 99.12 324.07 98.96 323.92 98.94C320.78 98.55 320.19 98.36 320.19 91.19C320.19 90.33 320.19 83.42 320.19 82.55C320.19 81.08 320.19 81.08 322.26 81.08C324.02 80.79 325.79 81.67 326.48 83.34C328.05 85.99 330.01 89.72 331.78 92.47C335.8 98.75 339.43 101.4 345.91 101.4C347.38 101.4 348.86 101.3 350.33 101.01C350.53 100.61 350.53 100.02 350.23 99.63C348.56 99.44 346.89 98.75 345.62 97.57C342.48 94.92 339.04 89.23 333.74 80.1C333.45 79.71 333.35 79.12 333.74 78.92C337.08 77.55 341.79 74.5 341.79 68.32C341.89 64.2 339.63 60.27 335.8 58.5C331.78 56.74 327.46 55.95 323.04 56.15C317.54 56.15 311.75 56.34 307.53 56.74C307.04 57.23 307.04 58.11 307.53 58.6C307.71 58.62 309.12 58.78 309.3 58.8C312.44 59.09 312.54 59.98 312.54 66.45C312.52 68.1 312.46 76.35 312.34 91.19C311.95 96.1 310.71 98.68 308.61 98.94Z" id="dSDuiYRkT"></path><path d="M357.99 58.31C357.88 58.29 357.01 58.13 356.91 58.11C356.42 57.62 356.51 56.44 357 56.05C358.28 56.05 359.65 56.15 361.22 56.15C362.7 56.15 364.27 56.15 365.74 56.15C367.03 56.15 377.31 56.15 378.6 56.15C382.92 56.15 386.84 56.15 387.73 55.95C388.02 57.13 388.42 62.43 388.81 65.28C388.51 65.87 387.24 65.96 386.65 65.57C385.57 61.64 384.59 59.98 382.43 59.48C380.66 59.09 378.89 58.9 377.03 58.9C376.58 58.9 372.96 58.9 372.51 58.9C369.57 58.9 369.57 58.99 369.57 62.92C369.57 64.06 369.57 73.17 369.57 74.31C369.57 76.07 369.57 76.17 371.24 76.17C371.56 76.17 374.15 76.17 374.48 76.17C380.37 76.17 381.54 76.17 381.94 73.23C381.99 73 382.38 71.2 382.43 70.97C383.02 70.48 384.29 70.48 384.59 70.97C384.59 72.83 384.39 75.19 384.39 77.74C384.39 80.29 384.49 82.65 384.59 84.81C383.9 85.3 383.11 85.3 382.43 84.81C382.38 84.54 381.99 82.42 381.94 82.16C381.45 79.31 380.37 79.21 374.48 79.21C374.15 79.21 371.56 79.21 371.24 79.21C369.67 79.21 369.57 79.31 369.57 81.08C369.57 81.93 369.57 88.77 369.57 89.62C369.57 93.06 369.67 95.51 370.75 96.59C371.73 97.77 372.81 98.06 378.4 98.06C386.94 98.16 388.51 96.2 390.77 90.8C391.46 90.31 392.44 90.5 392.93 91.19C392.34 94.53 391.46 97.87 390.08 101.01C388.61 101.01 386.45 100.91 383.61 100.91C380.76 100.91 377.42 100.91 373.49 100.91C372.73 100.91 366.6 100.91 365.84 100.91C362.89 100.91 358.77 100.91 355.73 101.1C355.14 100.61 355.14 99.63 355.63 99.04C355.88 99.02 357.84 98.87 358.08 98.85C361.22 98.55 361.81 98.26 361.81 91.19C361.81 89.52 361.77 81.18 361.72 66.16C361.32 61.25 360.08 58.63 357.99 58.31Z" id="b17FfjO26G"></path><path d="M430.43 59.88C432.1 59.09 433.96 58.8 435.83 58.9C447.11 58.9 454.87 65.37 454.87 78.72C454.87 90.11 449.47 98.65 437.49 98.65C430.33 98.65 429.84 95.12 429.84 88.54C429.84 86.96 429.84 79.08 429.84 64.88C429.84 61.81 430.03 60.14 430.43 59.88ZM418.26 98.94C418.11 98.96 416.93 99.12 416.78 99.14C416.29 99.63 416.39 100.81 416.88 101.2C419.83 101.1 422.97 101.01 425.42 101.01C426.7 101.01 428.17 101.01 429.74 101.2C431.31 101.4 433.18 101.4 435.24 101.4C441.03 101.6 446.72 100.52 451.92 98.16C459.38 94.63 464.1 87.07 464.1 78.72C464.39 69.69 458.8 61.45 450.26 58.5C445.15 56.74 439.75 55.95 434.35 56.25C427.78 56.25 422.18 56.44 417.47 56.83C416.98 57.33 416.98 58.21 417.47 58.7C417.61 58.71 418.71 58.79 418.84 58.8C421.99 59.19 422.08 59.98 422.08 66.45C422.08 68.1 422.04 76.35 421.99 91.19C421.59 96.1 420.35 98.68 418.26 98.94Z" id="ahgPMY8Fd"></path><path d="M480.69 79.31C480.97 78.53 483.25 72.25 483.53 71.46C484.81 68.32 485.3 66.65 485.59 66.16C485.6 66.16 485.68 66.16 485.69 66.16C486.48 67.83 487.16 69.6 487.56 71.46C487.84 72.27 490.12 78.7 490.4 79.51C490.99 81.08 490.7 81.28 488.83 81.28C488.36 81.28 486.01 81.32 481.76 81.37C480.52 81.37 480.16 80.69 480.69 79.31ZM492.37 86.28C492.68 87.2 495.19 94.5 495.51 95.41C496.39 98.26 496.19 98.75 493.84 98.94C493.69 98.96 492.51 99.12 492.37 99.14C491.97 99.83 492.07 100.61 492.56 101.2C494.92 101.2 497.86 101.01 500.81 101.01C504.34 101.01 506.89 101.01 509.54 101.2C510.03 100.61 510.03 99.73 509.54 99.14C509.45 99.12 508.66 98.96 508.56 98.94C505.13 98.36 504.83 97.87 503.26 93.35C502.29 90.52 494.52 67.91 493.54 65.08C492.46 62.04 491.48 58.9 490.5 55.85C490.21 55.46 489.81 55.26 489.32 55.36C488.05 56.83 486.38 57.91 484.61 58.6C484.61 60.37 484.12 62.04 483.34 63.51C482.41 65.9 475.03 85.07 474.11 87.46C472.73 91.09 471.65 93.94 470.77 95.71C469.79 97.96 469 98.55 467.04 98.85C466.83 98.88 465.19 99.11 464.98 99.14C464.49 99.73 464.49 100.61 464.98 101.2C467.34 101.1 469.4 101.01 471.65 101.01C474.4 101.01 476.66 101.01 478.82 101.2C479.41 100.71 479.41 99.73 478.92 99.14C478.71 99.11 477.06 98.88 476.86 98.85C474.3 98.45 474.11 98.26 475.48 94.33C475.76 93.53 477.96 87.09 478.23 86.28C478.82 84.42 478.82 84.42 480.49 84.42C481.1 84.42 484.14 84.42 489.62 84.42C490.99 84.42 491.91 85.04 492.37 86.28Z" id="a1XAYMRibu"></path><path d="M571.29 101.2C568.34 101.1 565.79 101.01 563.04 101.01C559.9 101.01 556.96 101.01 554.01 101.2C553.42 100.91 553.22 99.63 553.91 99.14C554.1 99.11 555.59 98.88 555.78 98.85C558.53 98.45 558.62 97.87 558.62 93.25C558.62 91.41 558.62 82.22 558.62 65.67C558.56 65.67 558.53 65.67 558.53 65.67C556.66 69.4 555.78 71.36 554.5 74.11C553.92 75.29 549.29 84.71 548.71 85.89C546.45 90.6 543.02 98.06 541.84 101.3C541.25 101.6 540.66 101.6 540.07 101.3C538.89 97.67 536.05 91.09 534.48 87.66C533.87 86.36 529 76 528.39 74.7C527.11 71.95 525.35 67.73 524.56 65.67C524.55 65.67 524.47 65.67 524.46 65.67C524.37 69.01 524.17 74.21 524.07 77.06C523.97 81.08 523.78 87.17 523.78 92.66C523.78 97.08 523.78 98.16 526.72 98.75C526.95 98.79 528.75 99.1 528.98 99.14C529.47 99.53 529.47 100.81 528.98 101.2C526.43 101.1 524.37 101.01 521.91 101.01C519.75 101.01 517.3 101.01 514.75 101.2C514.16 100.71 514.06 99.83 514.55 99.14C514.67 99.13 515.61 99.05 515.73 99.04C518.97 98.65 519.46 97.67 519.95 93.55C520.34 89.42 520.64 84.91 520.93 77.94C521.22 73.33 521.62 67.83 521.62 63.61C521.62 60.47 520.64 58.99 517.99 58.6C517.76 58.56 515.95 58.25 515.73 58.21C515.34 57.72 515.43 56.44 516.02 56.15C518.08 56.25 519.85 56.34 522.4 56.34C524.96 56.34 527.11 56.34 529.57 56.15C530.06 60.07 531.34 63.9 533.3 67.34C534.04 68.9 540.01 81.38 540.76 82.94C541.25 84.12 543.02 87.46 543.9 89.03C544.98 86.97 545.96 85.2 547.43 82.06C548.06 80.77 553.09 70.4 553.72 69.1C555.97 64.98 557.84 60.66 559.11 56.25C560.98 56.34 563.14 56.44 564.71 56.44C567.56 56.44 569.91 56.44 571.78 56.25C572.37 56.44 572.66 57.13 572.37 57.72C572.27 57.91 572.17 58.11 571.97 58.21C571.75 58.25 569.94 58.56 569.72 58.6C566.77 58.99 566.08 60.17 566.08 63.71C566.08 73.72 566.18 83.63 566.67 93.64C566.87 98.16 567.65 98.65 569.72 98.94C569.83 98.96 570.38 99.02 571.38 99.14C571.78 100.25 571.74 100.94 571.29 101.2Z" id="aXv14xcH0"></path><path d="M582.08 58.31C581.98 58.29 581.11 58.13 581 58.11C580.51 57.62 580.61 56.44 581.1 56.05C582.38 56.05 583.85 56.15 585.32 56.15C586.8 56.15 588.37 56.15 589.84 56.15C591.12 56.15 601.41 56.15 602.7 56.15C607.02 56.15 610.94 56.15 611.83 55.95C612.12 57.13 612.51 62.43 612.91 65.28C612.61 65.87 611.34 65.96 610.75 65.57C609.67 61.64 608.69 59.98 606.53 59.48C604.76 59.09 602.99 58.9 601.13 58.9C600.67 58.9 596.97 58.9 596.51 58.9C593.67 58.9 593.67 58.99 593.67 62.92C593.67 64.06 593.67 73.17 593.67 74.31C593.67 76.07 593.67 76.17 595.24 76.17C595.56 76.17 598.15 76.17 598.48 76.17C604.37 76.17 605.45 76.17 605.94 73.23C605.99 73 606.38 71.2 606.43 70.97C607.02 70.48 607.9 70.48 608.59 70.97C608.59 72.83 608.39 75.19 608.39 77.74C608.39 80.29 608.49 82.65 608.59 84.81C607.9 85.3 607.11 85.3 606.43 84.81C606.37 84.55 605.9 82.51 605.84 82.26C605.35 79.41 604.27 79.31 598.38 79.31C598.05 79.31 595.46 79.31 595.14 79.31C593.57 79.31 593.57 79.41 593.57 81.18C593.57 82.03 593.57 88.86 593.57 89.72C593.57 93.15 593.67 95.61 594.75 96.69C595.73 97.87 596.81 98.16 602.4 98.16C610.94 98.26 612.51 96.29 614.77 90.9C615.46 90.4 616.44 90.6 616.93 91.29C616.34 94.63 615.36 97.96 614.08 101.1C612.61 101.1 610.45 101.01 607.61 101.01C604.76 101.01 601.42 101.01 597.49 101.01C596.72 101.01 590.52 101.01 589.74 101.01C586.8 101.01 582.67 101.01 579.63 101.2C579.04 100.71 579.04 99.83 579.53 99.14C579.79 99.12 581.83 98.96 582.08 98.94C585.22 98.65 585.81 98.36 585.81 91.29C585.81 89.61 585.81 81.24 585.81 66.16C585.42 61.25 584.18 58.63 582.08 58.31Z" id="a2M1wOBrXs"></path><path d="M154.99 14.04C154.9 14.02 154.2 13.86 154.11 13.84C153.72 13.55 153.72 12.47 154.21 12.27C156.27 12.37 158.23 12.47 160.1 12.47C161.96 12.47 163.92 12.47 166.28 12.27C166.77 12.47 166.87 13.45 166.28 13.84C166.17 13.86 165.31 14.02 165.2 14.04C162.55 14.53 162.35 14.72 162.35 18.94C162.35 19.81 162.35 26.72 162.35 27.58C162.35 33.67 164.42 37.79 170.3 37.79C175.8 37.79 178.16 33.67 178.16 27.68C178.16 27.11 178.16 22.56 178.16 21.99C178.16 15.9 177.86 14.43 175.21 14.13C175.09 14.12 174.06 13.96 173.94 13.94C173.54 13.55 173.54 12.86 173.94 12.47C173.94 12.47 174.03 12.37 174.03 12.37C176.1 12.47 177.37 12.56 179.14 12.56C180.91 12.56 182.28 12.56 184.15 12.37C184.54 12.76 184.64 13.35 184.24 13.84C184.24 13.84 184.15 13.94 184.15 13.94C183.96 13.96 182.47 14.12 182.28 14.13C180.71 14.33 180.22 16 180.22 21.99C180.22 22.6 180.22 27.47 180.22 28.07C180.22 35.83 176.59 39.95 168.83 39.95C165.69 40.25 162.65 39.36 160.19 37.4C158.33 35.53 157.54 32.79 157.54 28.76C157.56 28.11 157.66 24.83 157.84 18.94C157.64 16.07 156.69 14.43 154.99 14.04Z" id="b1jUzYjeQX"></path><path d="M224.88 21.89C224.88 15.8 224.49 14.23 222.23 14.04C222.02 14.02 220.38 13.86 220.17 13.84C219.78 13.45 219.78 12.76 220.17 12.37C220.17 12.37 220.27 12.27 220.27 12.27C222.53 12.37 223.9 12.47 225.76 12.47C227.53 12.47 228.91 12.47 230.77 12.27C231.16 12.66 231.16 13.35 230.77 13.74C230.77 13.74 230.77 13.74 230.77 13.74C230.58 13.76 229.09 13.92 228.91 13.94C227.34 14.13 226.84 15.8 226.84 21.79C226.84 22.81 226.84 30.98 226.84 32C226.84 33.18 226.84 38.09 227.04 39.07C226.75 39.46 226.26 39.75 225.76 39.56C225.08 38.67 223.9 37.4 220.07 33.37C219.15 32.38 211.77 24.45 210.84 23.46C208.49 21.01 206.92 19.44 206.13 18.75C205.94 18.75 205.94 19.44 205.94 21.3C205.94 22.11 205.94 28.54 205.94 29.35C205.94 35.44 206.33 37.01 208.59 37.2C208.79 37.22 210.44 37.38 210.65 37.4C211.04 37.79 211.04 38.38 210.65 38.77C210.65 38.87 210.55 38.87 210.45 38.87C208.19 38.77 206.82 38.67 205.05 38.67C203.29 38.67 202.11 38.67 199.95 38.87C199.56 38.48 199.46 37.79 199.85 37.4C199.85 37.4 199.95 37.3 199.95 37.3C200.12 37.28 201.45 37.12 201.62 37.1C203.19 36.91 203.68 35.24 203.68 29.25C203.68 28.16 203.68 19.45 203.68 18.36C203.68 16.29 203.68 15.51 202.4 14.63C201.72 14.23 200.93 13.94 200.15 13.74C200.06 13.72 199.35 13.57 199.26 13.55C198.87 13.15 198.87 12.56 199.26 12.17C199.26 12.07 199.36 12.07 199.46 12.07C201.81 12.27 203.48 12.27 204.76 12.27C205.64 12.27 206.53 12.17 207.31 12.07C208.98 14.82 211.04 17.37 213.4 19.53C213.98 20.12 218.61 24.83 219.19 25.42C220.46 26.8 224.1 30.63 224.69 31.02C225.08 30.92 225.08 30.04 225.08 28.56C225.08 28.12 225.08 25.89 225.08 21.89C224.97 21.89 224.91 21.89 224.88 21.89Z" id="bkQ1LgMZ9"></path><path d="M248.24 14.04C248.13 14.02 247.18 13.86 247.07 13.84C246.67 13.55 246.67 12.47 247.16 12.27C249.52 12.37 251.38 12.47 253.35 12.47C255.31 12.47 257.18 12.47 259.53 12.27C260.02 12.47 260.12 13.45 259.63 13.84C259.51 13.86 258.57 14.02 258.45 14.04C255.8 14.53 255.61 14.72 255.61 18.94C255.61 20.31 255.61 31.22 255.61 32.59C255.61 36.81 255.8 37.01 258.45 37.5C258.57 37.52 259.51 37.67 259.63 37.69C260.02 38.09 260.02 38.77 259.63 39.17C259.63 39.17 259.53 39.26 259.53 39.26C257.27 39.17 255.21 39.07 253.35 39.07C251.48 39.07 249.52 39.07 247.16 39.26C246.67 38.97 246.57 38.28 246.97 37.79C246.97 37.79 247.07 37.69 247.07 37.69C247.17 37.67 248.04 37.52 248.15 37.5C250.8 37.01 250.99 36.81 250.99 32.59C251 31.68 251.03 27.13 251.09 18.94C250.96 16 250.01 14.36 248.24 14.04Z" id="a1vvLUMWIq"></path><path d="M275.63 14.33C275.42 14.28 273.77 13.89 273.57 13.84C273.18 13.45 273.18 12.76 273.57 12.37C273.57 12.37 273.57 12.37 273.57 12.37C275.14 12.47 277.2 12.56 279.07 12.56C281.32 12.56 283.09 12.56 285.05 12.37C285.45 12.66 285.54 13.25 285.25 13.74C285.15 13.84 285.15 13.94 285.05 13.94C284.93 13.96 283.9 14.12 283.78 14.13C282.21 14.33 282.21 15.21 283.58 18.16C283.89 18.84 286.32 24.26 286.62 24.93C288.19 28.47 289.18 30.72 290.06 32.69C291.34 30.13 292.32 27.58 293.49 25.03C294.67 22.48 296.54 17.96 297.13 16.2C297.52 14.92 297.42 14.53 295.65 14.13C295.56 14.12 294.77 13.96 294.67 13.94C294.28 13.64 294.18 12.96 294.57 12.56C294.67 12.47 294.67 12.47 294.77 12.37C296.54 12.47 298.11 12.56 299.78 12.56C301.25 12.56 302.72 12.56 304.1 12.37C304.59 12.56 304.78 13.25 304.59 13.74C304.59 13.84 304.49 13.84 304.49 13.94C304.32 13.97 302.99 14.2 302.82 14.23C300.96 14.63 300.66 15.12 298.7 19.34C298.24 20.35 294.55 28.44 294.08 29.45C292.22 33.37 290.45 37.79 289.76 39.85C289.57 40.05 289.27 40.05 288.98 40.05C288.69 40.05 288.49 39.95 288.29 39.85C287.7 38.28 287.02 36.32 286.23 34.55C285.76 33.52 283.4 28.35 279.16 19.04C277.79 16.16 276.61 14.59 275.63 14.33Z" id="a3LhfSdpde"></path><path d="M319.02 14.04C318.93 14.02 318.22 13.86 318.13 13.84C317.64 13.55 317.84 12.56 318.23 12.27C319.11 12.27 320.1 12.37 320.98 12.37C321.86 12.37 323.04 12.37 323.92 12.37C324.79 12.37 331.7 12.37 332.56 12.37C335.21 12.37 337.67 12.37 338.26 12.17C338.26 12.86 338.65 15.8 338.94 18.36C338.55 18.85 337.86 18.85 337.37 18.55C337.37 18.55 337.37 18.55 337.37 18.55C337.18 17.47 336.78 16.49 336.29 15.61C335.31 14.13 332.56 14.13 331.09 14.13C330.82 14.13 328.62 14.13 328.34 14.13C326.18 14.13 326.18 14.13 326.18 16.2C326.18 16.87 326.18 22.29 326.18 22.97C326.18 24.05 326.18 24.25 327.36 24.25C327.64 24.25 329.92 24.25 330.21 24.25C333.45 24.25 333.74 23.75 334.23 21.89C334.26 21.77 334.5 20.83 334.53 20.71C334.92 20.32 335.51 20.22 335.9 20.61C335.9 20.61 336 20.71 336 20.71C335.9 22.48 335.9 23.56 335.9 25.03C335.9 26.4 335.9 27.68 336 29.45C335.7 29.94 335.02 30.04 334.53 29.64C334.53 29.64 334.53 29.64 334.43 29.55C334.4 29.43 334.16 28.49 334.13 28.37C333.64 26.5 333.35 26.11 330.11 26.11C329.82 26.11 327.55 26.11 327.26 26.11C326.08 26.11 326.08 26.31 326.08 27.48C326.08 27.94 326.08 31.55 326.08 32C325.89 33.47 326.18 35.04 326.77 36.42C327.36 37.01 328.44 37.3 331.88 37.3C335.8 37.3 338.06 37.1 339.83 32.2C340.22 31.8 340.91 31.8 341.3 32.29C341.3 32.39 341.4 32.39 341.4 32.49C341.2 34.85 340.51 37.1 339.53 39.26C337.67 39.26 335.9 39.17 334.13 39.17C332.37 39.17 330.8 39.17 329.13 39.17C328.59 39.17 324.27 39.17 323.73 39.17C321.67 39.17 319.9 39.17 316.96 39.36C316.46 39.17 316.46 38.09 316.86 37.79C317.02 37.77 318.36 37.61 318.53 37.6C321.18 37.3 321.37 36.91 321.37 32.69C321.39 31.77 321.45 27.19 321.57 18.94C321.44 16 320.59 14.36 319.02 14.04Z" id="j5KoF42qP"></path><path d="M368 14.13C371.14 13.74 373.99 16 374.38 19.14C374.38 19.34 374.38 19.63 374.38 19.83C374.38 24.05 372.32 25.62 368.29 25.62C365.35 25.62 365.25 25.62 365.25 24.05C365.26 23.5 365.29 20.75 365.35 15.8C365.67 14.69 366.56 14.13 368 14.13ZM357.89 37.5C357.8 37.52 357.09 37.67 357 37.69C356.61 37.99 356.51 38.48 356.81 38.97C356.91 39.07 357 39.17 357.2 39.26C359.36 39.17 361.22 39.07 363.29 39.07C365.35 39.07 367.21 39.07 369.76 39.26C370.26 38.97 370.35 38.28 369.96 37.79C369.96 37.79 369.86 37.69 369.86 37.69C369.73 37.67 368.63 37.52 368.49 37.5C365.84 37.1 365.64 36.81 365.64 32.59C365.64 32.16 365.64 28.7 365.64 28.27C365.64 27.39 365.74 27.29 367.31 27.29C368.19 27.19 369.18 27.58 369.76 28.27C371.04 30.33 372.71 32.88 374.18 34.85C376.83 38.28 379.09 39.46 382.72 39.46C383.61 39.46 384.49 39.36 385.27 39.17C385.57 38.87 385.57 38.48 385.27 38.18C384.1 38.09 382.92 37.69 382.03 36.91C378.89 34.16 376.24 30.82 374.28 27.09C374.08 26.8 374.08 26.5 374.28 26.21C377.32 25.42 379.48 22.77 379.58 19.63C379.58 13.15 373.49 12.27 367.8 12.27C364.46 12.27 361.03 12.37 357.69 12.66C357.1 12.86 357.2 14.13 357.69 14.13C357.86 14.16 359.19 14.4 359.36 14.43C360.73 14.63 360.83 15.61 360.83 19.63C360.83 20.5 360.79 24.81 360.73 32.59C360.6 35.47 359.65 37.1 357.89 37.5Z" id="e7bBSBrb4"></path><path d="M399.7 19.34C399.7 14.92 403.14 11.78 409.32 11.78C411.29 11.88 413.15 12.17 415.02 12.66C415.7 14.63 416 16.69 415.9 18.75C415.51 19.24 414.82 19.24 414.33 18.94C414.33 18.94 414.33 18.94 414.33 18.94C413.94 16.1 411.58 13.84 408.64 13.74C405 13.74 403.63 15.8 403.63 17.77C403.63 19.83 405.3 21.3 407.65 22.58C408.03 22.78 411.01 24.43 411.38 24.64C414.33 26.11 416.29 29.06 416.29 32.39C416.29 37.1 412.37 40.15 406.38 40.15C403.92 40.25 401.47 39.56 399.31 38.28C398.43 36.32 397.94 34.16 398.03 32C398.23 31.51 398.82 31.41 399.31 31.61C399.41 31.71 399.51 31.8 399.61 31.9C400.1 34.06 402.75 38.48 406.87 38.48C410.01 38.48 411.97 36.91 411.97 34.06C411.97 32 411.19 30.04 407.75 28.37C407.58 28.25 406.69 27.66 405.1 26.6C401.5 23.98 399.7 21.56 399.7 19.34Z" id="afGqeZkIz"></path><path d="M434.26 14.04C434.14 14.02 433.2 13.86 433.08 13.84C432.59 13.55 432.69 12.47 433.08 12.27C435.43 12.37 437.4 12.47 439.26 12.47C441.22 12.47 443.09 12.47 445.54 12.27C446.03 12.47 446.13 13.45 445.54 13.84C445.43 13.86 444.48 14.02 444.37 14.04C441.72 14.53 441.52 14.72 441.52 18.94C441.52 20.31 441.52 31.22 441.52 32.59C441.52 36.81 441.72 37.01 444.37 37.5C444.48 37.52 445.43 37.67 445.54 37.69C445.94 38.09 446.03 38.67 445.64 39.17C445.64 39.17 445.54 39.26 445.54 39.26C443.19 39.17 441.22 39.07 439.26 39.07C437.4 39.07 435.43 39.07 433.08 39.26C432.69 38.87 432.59 38.18 432.98 37.79C432.98 37.79 433.08 37.69 433.08 37.69C433.2 37.67 434.14 37.52 434.26 37.5C436.91 37.01 437.1 36.81 437.1 32.59C437.1 31.68 437.1 27.13 437.1 18.94C436.91 16 435.96 14.36 434.26 14.04Z" id="f3oBRDJ33x"></path><path d="M470.87 14.33C470.66 14.33 469.01 14.33 468.81 14.33C465.08 14.33 463.51 14.72 462.03 18.94C461.54 19.34 460.96 19.24 460.56 18.75C460.56 18.75 460.56 18.65 460.46 18.65C461.15 16 461.84 12.96 462.13 11.48C462.43 11.29 462.92 11.29 463.21 11.48C463.21 12.76 464.1 12.66 466.55 12.66C468.26 12.66 481.92 12.66 483.63 12.66C485.89 12.66 486.28 12.66 486.77 11.48C487.16 11.29 487.65 11.29 487.85 11.68C487.26 14.04 487.07 16.39 487.26 18.85C486.97 19.24 486.28 19.34 485.89 19.04C485.79 19.04 485.79 18.94 485.69 18.85C485.3 14.82 483.63 14.43 480 14.43C479.79 14.43 478.14 14.43 477.94 14.43C476.76 14.43 476.56 14.43 476.56 16C476.56 17.68 476.56 31.11 476.56 32.79C476.56 37.01 476.86 37.4 479.41 37.69C479.58 37.71 480.91 37.87 481.08 37.89C481.47 38.28 481.47 38.97 481.08 39.36C481.08 39.36 480.98 39.46 480.98 39.46C478.43 39.36 476.17 39.26 474.3 39.26C472.44 39.26 470.18 39.26 467.63 39.46C467.14 39.17 467.04 38.48 467.43 38.09C467.43 38.09 467.53 37.99 467.53 37.99C467.7 37.97 469.03 37.81 469.2 37.79C471.85 37.5 472.05 37.1 472.05 32.88C472.05 31.75 472.09 26.09 472.15 15.9C472.15 14.85 471.72 14.33 470.87 14.33Z" id="cTmBLNJT9"></path><path d="M510.62 25.72C510.18 24.89 506.65 18.3 506.21 17.47C504.93 15.02 504.34 14.53 502.77 14.13C502.61 14.11 501.36 13.87 501.2 13.84C500.81 13.45 500.81 12.76 501.3 12.37C501.3 12.37 501.4 12.27 501.4 12.27C503.46 12.37 504.83 12.47 506.99 12.47C508.86 12.47 510.23 12.47 512.19 12.27C512.59 12.56 512.69 13.15 512.39 13.55C512.29 13.64 512.19 13.74 512.19 13.74C512.11 13.76 511.4 13.92 511.31 13.94C509.94 14.23 509.74 14.63 510.72 16.49C510.95 16.92 512.75 20.38 512.98 20.81C513.86 22.67 514.84 24.34 515.73 25.91C516.71 24.25 517.59 22.77 518.67 20.81C518.92 20.37 520.88 16.83 521.13 16.39C522.01 14.72 522.11 14.13 520.73 13.94C520.61 13.92 519.59 13.76 519.46 13.74C519.07 13.45 518.97 12.96 519.26 12.47C519.36 12.37 519.46 12.27 519.65 12.17C521.52 12.27 522.89 12.37 524.27 12.37C525.64 12.37 526.92 12.37 528.59 12.17C529.08 12.47 529.18 13.06 528.88 13.55C528.88 13.64 528.78 13.64 528.78 13.74C528.64 13.77 527.46 14.01 527.31 14.04C525.45 14.43 525.05 14.82 523.29 17.87C522.91 18.47 519.93 23.34 519.56 23.95C517.3 27.48 517.2 28.07 517.2 29.84C517.2 30.16 517.2 32.76 517.2 33.08C517.2 36.71 517.4 37.1 520.05 37.4C520.2 37.42 521.46 37.58 521.62 37.6C522.01 37.99 522.01 38.67 521.52 39.07C521.52 39.07 521.52 39.07 521.42 39.17C518.77 39.07 516.71 38.97 514.84 38.97C512.98 38.97 511.02 38.97 508.27 39.17C507.78 38.87 507.68 38.18 508.07 37.69C508.07 37.69 508.17 37.6 508.17 37.6C508.33 37.58 509.58 37.42 509.74 37.4C512.39 37.1 512.59 36.71 512.59 33.08C512.57 32.94 512.47 32.22 512.29 30.92C511.9 28.43 511.34 26.7 510.62 25.72Z" id="e1hyGMkiP4"></path><path d="M564.61 13.25C571.29 13.25 574.43 19.83 574.43 26.4C574.43 34.75 570.01 37.99 565.3 37.99C558.23 37.99 555.38 31.21 555.38 24.93C555.38 16.2 560.19 13.25 564.61 13.25M565 11.39C556.17 11.39 549.99 17.57 549.99 25.72C549.99 33.37 555.58 39.56 565 39.56C573.64 39.56 579.83 33.47 579.83 25.42C579.83 18.06 574.82 11.48 565 11.39" id="dpSiL0mju"></path><path d="M592.69 14.04C592.62 14.02 592.07 13.86 592 13.84C591.61 13.55 591.61 12.47 592.1 12.27C592.88 12.27 593.76 12.37 594.75 12.37C595.73 12.37 596.61 12.37 597.59 12.37C598.44 12.37 605.19 12.37 606.03 12.37C608.78 12.37 611.04 12.37 611.92 12.17C611.92 12.86 612.02 15.8 612.22 18.45C611.92 18.94 611.34 19.04 610.84 18.75C610.75 18.65 610.65 18.55 610.55 18.45C610.35 17.37 609.96 16.39 609.47 15.51C608.39 14.04 605.74 14.04 604.27 14.04C604.03 14.04 602.15 14.04 601.91 14.04C600.05 14.04 599.85 14.04 599.85 16.1C599.85 16.8 599.85 22.46 599.85 23.17C599.85 24.34 599.85 24.44 601.03 24.44C601.36 24.44 604.03 24.44 604.37 24.44C607.61 24.44 607.9 23.95 608.39 22.18C608.42 22.07 608.66 21.12 608.69 21.01C609.08 20.61 609.67 20.61 610.06 21.01C610.06 21.01 610.16 21.1 610.16 21.1C610.16 22.87 610.16 23.95 610.16 25.33C610.16 26.7 610.16 27.98 610.16 29.74C609.86 30.23 609.18 30.23 608.78 29.94C608.78 29.94 608.69 29.84 608.69 29.84C608.66 29.72 608.42 28.78 608.39 28.66C607.9 26.8 607.61 26.31 604.37 26.31C604.03 26.31 601.36 26.31 601.03 26.31C599.85 26.31 599.85 26.5 599.85 27.68C599.85 28.16 599.85 32.01 599.85 32.49C599.85 36.71 600.05 37.1 602.7 37.4C602.88 37.42 604.38 37.58 604.56 37.6C604.96 37.99 604.96 38.67 604.56 39.07C604.56 39.07 604.46 39.17 604.46 39.17C601.42 39.07 599.36 38.97 597.49 38.97C595.63 38.97 593.67 38.97 591.31 39.17C590.82 38.87 590.72 38.18 591.11 37.69C591.11 37.69 591.21 37.6 591.21 37.6C591.33 37.58 592.27 37.42 592.39 37.4C595.04 37.01 595.24 36.71 595.24 32.49C595.24 31.59 595.24 27.07 595.24 18.94C595.04 16.07 594.19 14.43 592.69 14.04Z" id="bjBkHNlFY"></path></defs><g><g><g><use xlink:href="#a1k5ZMLAHf" opacity="1" fill="#ae9142" fill-opacity="1"></use><g><use xlink:href="#a1k5ZMLAHf" opacity="1" fill-opacity="0" stroke="#000000" stroke-width="1" stroke-opacity="0"></use></g></g><g><use xlink:href="#a2xDzYIOmb" opacity="1" fill="#ae9142" fill-opacity="1"></use><g><use xlink:href="#a2xDzYIOmb" opacity="1" fill-opacity="0" stroke="#000000" stroke-width="1" stroke-opacity="0"></use></g></g><g><use xlink:href="#c4nelOJsDd" opacity="1" fill="#ae9142" fill-opacity="1"></use><g><use xlink:href="#c4nelOJsDd" opacity="1" fill-opacity="0" stroke="#000000" stroke-width="1" stroke-opacity="0"></use></g></g><g><use xlink:href="#e18y6cS1rJ" opacity="1" fill="#ae9142" fill-opacity="1"></use><g><use xlink:href="#e18y6cS1rJ" opacity="1" fill-opacity="0" stroke="#000000" stroke-width="1" stroke-opacity="0"></use></g></g><g><use xlink:href="#a43QIvVy1b" opacity="1" fill="#ae9142" fill-opacity="1"></use><g><use xlink:href="#a43QIvVy1b" opacity="1" fill-opacity="0" stroke="#000000" stroke-width="1" stroke-opacity="0"></use></g></g><g><use xlink:href="#a5PQQXaZN4" opacity="1" fill="#ae9142" fill-opacity="1"></use><g><use xlink:href="#a5PQQXaZN4" opacity="1" fill-opacity="0" stroke="#000000" stroke-width="1" stroke-opacity="0"></use></g></g><g><use xlink:href="#frnZySftw" opacity="1" fill="#ae9142" fill-opacity="1"></use><g><use xlink:href="#frnZySftw" opacity="1" fill-opacity="0" stroke="#000000" stroke-width="1" stroke-opacity="0"></use></g></g><g><use xlink:href="#bDCt7yEBW" opacity="1" fill="#ae9142" fill-opacity="1"></use><g><use xlink:href="#bDCt7yEBW" opacity="1" fill-opacity="0" stroke="#000000" stroke-width="1" stroke-opacity="0"></use></g></g><g><use xlink:href="#f4KucPyAtD" opacity="1" fill="#ae9142" fill-opacity="1"></use><g><use xlink:href="#f4KucPyAtD" opacity="1" fill-opacity="0" stroke="#000000" stroke-width="1" stroke-opacity="0"></use></g></g><g><use xlink:href="#b18noz5IZL" opacity="1" fill="#ae9142" fill-opacity="1"></use><g><use xlink:href="#b18noz5IZL" opacity="1" fill-opacity="0" stroke="#000000" stroke-width="1" stroke-opacity="0"></use></g></g><g><use xlink:href="#aSmV9gvEH" opacity="1" fill="#ae9142" fill-opacity="1"></use><g><use xlink:href="#aSmV9gvEH" opacity="1" fill-opacity="0" stroke="#000000" stroke-width="1" stroke-opacity="0"></use></g></g><g><use xlink:href="#f4w7Apdei" opacity="1" fill="#ae9142" fill-opacity="1"></use><g><use xlink:href="#f4w7Apdei" opacity="1" fill-opacity="0" stroke="#000000" stroke-width="1" stroke-opacity="0"></use></g></g><g><use xlink:href="#c2aciEleLx" opacity="1" fill="#ae9142" fill-opacity="1"></use><g><use xlink:href="#c2aciEleLx" opacity="1" fill-opacity="0" stroke="#000000" stroke-width="1" stroke-opacity="0"></use></g></g><g><use xlink:href="#c3mApw5Gam" opacity="1" fill="#ae9142" fill-opacity="1"></use><g><use xlink:href="#c3mApw5Gam" opacity="1" fill-opacity="0" stroke="#000000" stroke-width="1" stroke-opacity="0"></use></g></g><g><use xlink:href="#d1kaVyP9Lb" opacity="1" fill="#ae9142" fill-opacity="1"></use><g><use xlink:href="#d1kaVyP9Lb" opacity="1" fill-opacity="0" stroke="#000000" stroke-width="1" stroke-opacity="0"></use></g></g><g><use xlink:href="#elNhNI5Vh" opacity="1" fill="#ae9142" fill-opacity="1"></use><g><use xlink:href="#elNhNI5Vh" opacity="1" fill-opacity="0" stroke="#000000" stroke-width="1" stroke-opacity="0"></use></g></g><g><use xlink:href="#az5wRzqj" opacity="1" fill="#ae9142" fill-opacity="1"></use><g><use xlink:href="#az5wRzqj" opacity="1" fill-opacity="0" stroke="#000000" stroke-width="1" stroke-opacity="0"></use></g></g><g><use xlink:href="#aEyprp6zM" opacity="1" fill="#ae9142" fill-opacity="1"></use><g><use xlink:href="#aEyprp6zM" opacity="1" fill-opacity="0" stroke="#000000" stroke-width="1" stroke-opacity="0"></use></g></g><g><use xlink:href="#b1zuj3XL4" opacity="1" fill="#ae9142" fill-opacity="1"></use><g><use xlink:href="#b1zuj3XL4" opacity="1" fill-opacity="0" stroke="#000000" stroke-width="1" stroke-opacity="0"></use></g></g><g><use xlink:href="#f2zk9rrRe5" opacity="1" fill="#ae9142" fill-opacity="1"></use><g><use xlink:href="#f2zk9rrRe5" opacity="1" fill-opacity="0" stroke="#000000" stroke-width="1" stroke-opacity="0"></use></g></g><g><use xlink:href="#a18u8mEAfa" opacity="1" fill="#0c2340" fill-opacity="1"></use><g><use xlink:href="#a18u8mEAfa" opacity="1" fill-opacity="0" stroke="#000000" stroke-width="1" stroke-opacity="0"></use></g></g><g><use xlink:href="#ej37424As" opacity="1" fill="#0c2340" fill-opacity="1"></use><g><use xlink:href="#ej37424As" opacity="1" fill-opacity="0" stroke="#000000" stroke-width="1" stroke-opacity="0"></use></g></g><g><use xlink:href="#b32aPhWtNz" opacity="1" fill="#0c2340" fill-opacity="1"></use><g><use xlink:href="#b32aPhWtNz" opacity="1" fill-opacity="0" stroke="#000000" stroke-width="1" stroke-opacity="0"></use></g></g><g><use xlink:href="#dSDuiYRkT" opacity="1" fill="#0c2340" fill-opacity="1"></use><g><use xlink:href="#dSDuiYRkT" opacity="1" fill-opacity="0" stroke="#000000" stroke-width="1" stroke-opacity="0"></use></g></g><g><use xlink:href="#b17FfjO26G" opacity="1" fill="#0c2340" fill-opacity="1"></use><g><use xlink:href="#b17FfjO26G" opacity="1" fill-opacity="0" stroke="#000000" stroke-width="1" stroke-opacity="0"></use></g></g><g><use xlink:href="#ahgPMY8Fd" opacity="1" fill="#0c2340" fill-opacity="1"></use><g><use xlink:href="#ahgPMY8Fd" opacity="1" fill-opacity="0" stroke="#000000" stroke-width="1" stroke-opacity="0"></use></g></g><g><use xlink:href="#a1XAYMRibu" opacity="1" fill="#0c2340" fill-opacity="1"></use><g><use xlink:href="#a1XAYMRibu" opacity="1" fill-opacity="0" stroke="#000000" stroke-width="1" stroke-opacity="0"></use></g></g><g><use xlink:href="#aXv14xcH0" opacity="1" fill="#0c2340" fill-opacity="1"></use><g><use xlink:href="#aXv14xcH0" opacity="1" fill-opacity="0" stroke="#000000" stroke-width="1" stroke-opacity="0"></use></g></g><g><use xlink:href="#a2M1wOBrXs" opacity="1" fill="#0c2340" fill-opacity="1"></use><g><use xlink:href="#a2M1wOBrXs" opacity="1" fill-opacity="0" stroke="#000000" stroke-width="1" stroke-opacity="0"></use></g></g><g><use xlink:href="#b1jUzYjeQX" opacity="1" fill="#0c2340" fill-opacity="1"></use><g><use xlink:href="#b1jUzYjeQX" opacity="1" fill-opacity="0" stroke="#000000" stroke-width="1" stroke-opacity="0"></use></g></g><g><use xlink:href="#bkQ1LgMZ9" opacity="1" fill="#0c2340" fill-opacity="1"></use><g><use xlink:href="#bkQ1LgMZ9" opacity="1" fill-opacity="0" stroke="#000000" stroke-width="1" stroke-opacity="0"></use></g></g><g><use xlink:href="#a1vvLUMWIq" opacity="1" fill="#0c2340" fill-opacity="1"></use><g><use xlink:href="#a1vvLUMWIq" opacity="1" fill-opacity="0" stroke="#000000" stroke-width="1" stroke-opacity="0"></use></g></g><g><use xlink:href="#a3LhfSdpde" opacity="1" fill="#0c2340" fill-opacity="1"></use><g><use xlink:href="#a3LhfSdpde" opacity="1" fill-opacity="0" stroke="#000000" stroke-width="1" stroke-opacity="0"></use></g></g><g><use xlink:href="#j5KoF42qP" opacity="1" fill="#0c2340" fill-opacity="1"></use><g><use xlink:href="#j5KoF42qP" opacity="1" fill-opacity="0" stroke="#000000" stroke-width="1" stroke-opacity="0"></use></g></g><g><use xlink:href="#e7bBSBrb4" opacity="1" fill="#0c2340" fill-opacity="1"></use><g><use xlink:href="#e7bBSBrb4" opacity="1" fill-opacity="0" stroke="#000000" stroke-width="1" stroke-opacity="0"></use></g></g><g><use xlink:href="#afGqeZkIz" opacity="1" fill="#0c2340" fill-opacity="1"></use><g><use xlink:href="#afGqeZkIz" opacity="1" fill-opacity="0" stroke="#000000" stroke-width="1" stroke-opacity="0"></use></g></g><g><use xlink:href="#f3oBRDJ33x" opacity="1" fill="#0c2340" fill-opacity="1"></use><g><use xlink:href="#f3oBRDJ33x" opacity="1" fill-opacity="0" stroke="#000000" stroke-width="1" stroke-opacity="0"></use></g></g><g><use xlink:href="#cTmBLNJT9" opacity="1" fill="#0c2340" fill-opacity="1"></use><g><use xlink:href="#cTmBLNJT9" opacity="1" fill-opacity="0" stroke="#000000" stroke-width="1" stroke-opacity="0"></use></g></g><g><use xlink:href="#e1hyGMkiP4" opacity="1" fill="#0c2340" fill-opacity="1"></use><g><use xlink:href="#e1hyGMkiP4" opacity="1" fill-opacity="0" stroke="#000000" stroke-width="1" stroke-opacity="0"></use></g></g><g><use xlink:href="#dpSiL0mju" opacity="1" fill="#0c2340" fill-opacity="1"></use><g><use xlink:href="#dpSiL0mju" opacity="1" fill-opacity="0" stroke="#000000" stroke-width="1" stroke-opacity="0"></use></g></g><g><use xlink:href="#bjBkHNlFY" opacity="1" fill="#0c2340" fill-opacity="1"></use><g><use xlink:href="#bjBkHNlFY" opacity="1" fill-opacity="0" stroke="#000000" stroke-width="1" stroke-opacity="0"></use></g></g></g></g></svg>